# Blender 4.0.2
# www.blender.org
mtllib AnkleRight.mtl
o AnkleRight
v -0.076974 -0.050470 -0.000231
v -0.079714 -0.051707 -0.002084
v -0.078007 -0.051559 0.001387
v -0.080677 -0.052678 -0.000221
v -0.097016 -0.040125 0.000449
v -0.084370 -0.060939 0.001758
v -0.083245 -0.063770 -0.002549
v -0.082535 -0.065377 0.012021
v -0.096632 -0.040978 0.014700
v -0.097886 -0.038789 -0.012021
v -0.084797 -0.059806 -0.003398
v -0.083804 -0.063196 -0.014700
v -0.079615 -0.055830 -0.003376
v -0.078612 -0.055903 0.002093
v -0.073929 -0.052978 -0.001307
v -0.064615 -0.046083 -0.007570
v -0.089044 -0.041270 0.002931
v -0.088941 -0.040817 -0.001403
v -0.084640 -0.039740 -0.001145
v -0.083353 -0.038184 0.003611
v -0.072294 -0.032784 0.007477
v -0.116372 -0.067013 0.014076
v -0.109206 -0.062082 0.014141
v -0.110301 -0.070145 0.013534
v -0.108951 -0.065292 -0.014257
v -0.112695 -0.059566 -0.013613
v -0.117623 -0.066025 -0.013908
v -0.117526 -0.074169 0.006515
v -0.091602 -0.069166 0.005702
v -0.108590 -0.068774 0.006535
v -0.111709 -0.061273 0.007294
v -0.105043 -0.045885 0.008236
v -0.102510 -0.059766 0.006984
v -0.121018 -0.062533 0.007631
v -0.116772 -0.065888 0.007156
v -0.116474 -0.074022 0.011256
v -0.120902 -0.068021 0.011913
v -0.120024 -0.062143 0.013187
v -0.105700 -0.044747 -0.005702
v -0.121070 -0.060288 -0.006247
v -0.119317 -0.068167 0.014088
v -0.112898 -0.074524 0.012733
v -0.103015 -0.058891 -0.006983
v -0.114664 -0.073539 -0.007631
v -0.092259 -0.068028 -0.008236
v -0.117698 -0.063490 -0.006667
v -0.109134 -0.061926 -0.006943
v -0.111287 -0.068438 -0.007373
v -0.121534 -0.068111 -0.006863
v -0.121352 -0.060860 -0.012606
v -0.120669 -0.069441 -0.012270
v -0.114029 -0.072402 -0.014037
v -0.120539 -0.066058 -0.013552
v -0.093083 -0.043829 0.005879
v -0.089156 -0.049840 0.010352
v -0.066644 -0.042569 0.009714
v -0.086557 -0.054975 0.009426
v -0.063761 -0.047563 0.004043
v -0.083400 -0.058906 0.004279
v -0.084537 -0.058687 -0.005990
v -0.088438 -0.053143 -0.010643
v -0.070188 -0.036431 -0.009714
v -0.092610 -0.046215 -0.008831
v -0.073089 -0.031406 -0.003977
v -0.066775 -0.042342 -0.004530
v -0.066018 -0.043653 0.002268
v -0.070946 -0.035120 -0.002176
v -0.069572 -0.037496 0.005051
v -0.082867 -0.041559 0.000450
v -0.083790 -0.042754 -0.001145
v -0.092814 -0.049245 -0.003762
v -0.093336 -0.048333 0.002127
v -0.085141 -0.043554 0.001568
v -0.088923 -0.055984 0.004436
v -0.089162 -0.055570 -0.004232
v -0.085782 -0.042055 0.001777
v -0.094544 -0.043363 0.003482
v -0.094411 -0.043132 -0.001584
v -0.092057 -0.047906 0.010977
v -0.085794 -0.058820 0.008338
v -0.093500 -0.043027 -0.004311
v 0.002290 -0.000979 -0.013342
v -0.000835 -0.002104 -0.013235
v -0.002295 -0.000350 -0.013240
v -0.000035 0.002492 -0.013235
v -0.002112 0.001271 0.017185
v 0.001714 0.001816 0.017069
v 0.001676 0.001575 0.012868
v 0.002109 -0.001053 0.012920
v 0.000364 -0.002544 0.017310
v -0.000607 -0.002182 0.012868
v -0.002261 -0.000432 0.012896
v -0.000798 0.002185 0.012794
v 0.001602 0.002164 -0.017611
v -0.002421 0.000473 -0.017424
v 0.000224 -0.002630 -0.017504
v 0.004416 -0.000284 0.012816
v -0.000227 0.002847 0.012605
v 0.002033 0.003785 0.012876
v -0.002610 -0.003610 0.012963
v -0.001278 -0.002457 0.013150
v 0.002167 -0.002456 0.012887
v -0.003109 0.000381 0.012804
v -0.001117 0.003175 0.013185
v -0.003782 0.003146 0.013019
v 0.002310 -0.003813 0.013185
v -0.004569 0.000960 0.012550
v -0.000532 -0.004139 0.012550
v 0.002033 0.003785 -0.013261
v -0.000227 0.002847 -0.013532
v 0.002167 -0.002456 -0.013250
v 0.004416 -0.000284 -0.013321
v -0.004569 0.000960 -0.013587
v -0.003109 0.000381 -0.013333
v -0.001278 -0.002457 -0.012987
v -0.002610 -0.003610 -0.013174
v -0.003782 0.003146 -0.013118
v -0.000532 -0.004139 -0.013587
v -0.001117 0.003175 -0.012952
v 0.002310 -0.003813 -0.012952
v 0.053955 0.031604 -0.012901
v 0.051834 0.027621 -0.013244
v 0.049543 0.030376 -0.013146
v 0.050380 0.032126 0.017280
v 0.053898 0.031656 0.012898
v 0.054512 0.029679 0.017113
v 0.052920 0.027845 0.012827
v 0.051084 0.027762 0.017085
v 0.049937 0.028949 0.012839
v 0.050324 0.031601 0.012901
v 0.054500 0.029687 -0.013635
v 0.051967 0.032431 -0.013637
v 0.053227 0.032248 -0.017364
v 0.053245 0.027722 -0.017665
v 0.049434 0.030543 -0.017532
v 0.054996 0.027052 0.012919
v 0.052598 0.027260 0.012907
v 0.053592 0.032578 0.012594
v 0.055979 0.031327 0.012816
v 0.047335 0.031672 0.013042
v 0.049058 0.028383 0.012854
v 0.050005 0.032076 0.013102
v 0.053306 0.033086 0.013185
v 0.053398 0.034303 0.012901
v 0.050698 0.025659 0.013185
v 0.049834 0.032289 0.012550
v 0.047441 0.030073 0.012550
v 0.051136 0.025405 0.012550
v 0.055979 0.031327 -0.013321
v 0.053592 0.032578 -0.013543
v 0.052598 0.027260 -0.013230
v 0.054996 0.027052 -0.013218
v 0.047441 0.030073 -0.013587
v 0.049834 0.032289 -0.013587
v 0.049058 0.028383 -0.013283
v 0.053398 0.034303 -0.013236
v 0.051136 0.025405 -0.013587
v 0.047335 0.031672 -0.013095
v 0.050005 0.032076 -0.013035
v 0.053306 0.033086 -0.012952
v 0.050698 0.025659 -0.012952
v -0.089978 -0.054153 0.003995
v -0.092924 -0.049052 0.003277
v -0.093135 -0.048685 -0.000301
v -0.091324 -0.051823 -0.003673
v -0.090683 -0.052932 -0.005133
v -0.089008 -0.055835 -0.000789
v -0.088463 -0.056777 -0.000528
v -0.019504 -0.016218 -0.000848
v -0.021567 -0.012645 -0.004434
v -0.023735 -0.008890 -0.002702
v -0.023679 -0.008987 0.001252
v -0.021427 -0.012888 0.003905
v -0.021062 -0.013519 0.005253
v -0.031720 -0.009654 -0.001810
v -0.033370 -0.013452 0.000749
v -0.034460 -0.011236 -0.001532
v -0.031638 -0.012905 -0.001886
v -0.034220 -0.011098 0.001810
v -0.031481 -0.009516 0.001532
v -0.030081 -0.011549 0.000862
v -0.035670 -0.018219 -0.012418
v -0.036311 -0.017119 -0.003996
v -0.039941 -0.010821 0.007712
v -0.040068 -0.010593 -0.007364
v -0.036787 -0.016290 0.002825
v -0.035655 -0.018243 0.012416
v -0.002118 -0.001436 -0.005500
v -0.002118 0.001436 -0.012550
v -0.001436 0.002118 -0.005500
v 0.001436 0.002118 -0.012550
v 0.002830 -0.000494 -0.005500
v 0.000494 -0.002830 -0.012550
v 0.053832 0.035336 -0.013109
v -0.001208 -0.005365 -0.013193
v 0.056937 0.027960 -0.013183
v 0.008855 -0.000194 -0.013236
v 0.047688 0.022247 -0.013082
v -0.005251 0.001635 -0.013120
v 0.043110 0.030175 -0.013068
v 0.004258 0.007771 -0.013237
v 0.001436 -0.002118 0.012550
v -0.001436 -0.002118 0.005500
v -0.002118 -0.001436 0.012550
v -0.000494 0.002830 0.005500
v 0.000494 0.002830 0.012550
v 0.002118 -0.001436 0.005500
v -0.033613 -0.021781 0.012418
v -0.021190 -0.012354 0.012612
v -0.026840 -0.002104 0.004440
v -0.010415 0.007177 0.005506
v -0.029256 -0.029322 0.007446
v -0.014428 -0.021639 0.004864
v -0.019023 -0.015459 0.003844
v -0.015218 -0.022163 -0.004512
v -0.019144 -0.015930 -0.003552
v -0.000909 -0.011947 0.013100
v 0.003449 -0.012223 0.005348
v 0.007506 -0.009785 0.012823
v 0.012157 -0.003672 0.005500
v -0.001130 0.012555 -0.005497
v -0.003219 0.011312 -0.013269
v -0.008947 0.009071 -0.011316
v -0.010391 0.007201 -0.005505
v -0.004853 -0.012328 -0.009923
v 0.000971 -0.012632 -0.005515
v 0.004846 -0.011507 -0.011775
v 0.009984 -0.007861 -0.005499
v 0.008793 -0.007886 -0.013097
v 0.040019 0.034157 -0.005499
v 0.048949 0.017868 -0.005500
v 0.055820 0.018534 -0.013119
v 0.058226 0.018490 -0.005500
v 0.062336 0.022772 -0.011775
v 0.064761 0.029133 -0.005499
v 0.063928 0.031707 -0.013073
v 0.060670 0.039488 -0.005500
v 0.062165 0.036964 -0.012042
v 0.055930 0.041479 -0.012867
v 0.048415 0.042606 -0.005499
v 0.047843 0.042050 -0.011387
v 0.053398 0.027882 -0.005500
v 0.053710 0.027941 -0.012550
v 0.049141 0.029756 -0.005500
v 0.049141 0.030244 -0.012550
v 0.053710 0.032059 -0.005500
v 0.053398 0.032118 -0.012550
v -0.013129 0.001791 0.009988
v -0.009076 0.008224 0.013050
v -0.001819 0.012576 0.005498
v -0.001934 0.011664 0.013023
v 0.039949 0.033457 0.005500
v 0.048996 0.018644 0.013085
v 0.049590 0.017579 0.005499
v 0.061103 0.020624 0.005499
v 0.056165 0.018016 0.011561
v 0.062503 0.024121 0.012972
v 0.064532 0.032797 0.005500
v 0.063857 0.032863 0.012904
v 0.057610 0.041518 0.005499
v 0.059271 0.040166 0.011736
v 0.050789 0.042685 0.011331
v 0.045122 0.041178 0.005500
v 0.042738 0.038610 0.011245
v 0.053398 0.027882 0.012550
v 0.053710 0.027941 0.005500
v 0.049141 0.029756 0.012550
v 0.049141 0.030244 0.005500
v 0.053710 0.032059 0.012550
v 0.053398 0.032118 0.005500
v -0.029277 -0.029292 -0.007606
v -0.021293 -0.012174 -0.012612
v -0.033627 -0.021757 -0.012416
v -0.026002 -0.001686 -0.004807
v -0.013000 0.001532 -0.010179
v -0.032981 -0.022888 0.003995
v -0.032501 -0.023714 -0.002825
v -0.022900 -0.008745 -0.003844
v 0.047688 0.022247 0.013046
v 0.011514 -0.002850 0.012983
v 0.056937 0.027960 0.013113
v 0.043110 0.030175 0.013087
v -0.001208 -0.005365 0.013120
v -0.005251 0.001635 0.013193
v 0.053832 0.035336 0.013174
v 0.004259 0.007766 0.013216
v 0.008851 -0.000175 0.013048
v 0.003175 0.011660 -0.012505
v -0.010693 0.003955 -0.013081
v 0.040476 0.032925 -0.013055
v -0.010751 -0.006137 -0.013123
v -0.002033 -0.010996 -0.013281
v 0.048668 0.018624 -0.012963
v 0.043297 0.038356 -0.013041
v 0.011690 -0.003139 -0.012408
v -0.006105 -0.011541 0.010989
v -0.011107 -0.005311 0.013055
v 0.003126 0.011693 0.012408
v 0.040550 0.032989 0.012993
v 0.050530 0.041248 0.013409
v -0.023368 -0.008614 0.003553
v -0.023022 -0.011355 -0.004758
v -0.021169 -0.014012 -0.004824
v -0.025944 -0.020477 -0.001795
v -0.026296 -0.020560 0.001937
v -0.028328 -0.022177 -0.000096
v -0.021345 -0.014260 0.004758
v -0.022720 -0.011326 0.004824
v -0.032330 -0.005408 -0.000086
v -0.036697 -0.007922 0.002108
v -0.036208 -0.007632 -0.002357
v -0.024829 -0.026889 0.001989
v -0.025525 -0.027290 -0.001168
v -0.021901 -0.025383 0.001204
v -0.022677 -0.025751 -0.002027
vn 0.2775 -0.5227 -0.8061
vn 0.6934 -0.5163 0.5027
vn 0.2163 -0.5812 -0.7845
vn 0.0962 0.9870 0.1287
vn 0.7438 0.6670 0.0429
vn -0.0895 0.9637 0.2517
vn 0.9540 0.2994 -0.0134
vn 0.9080 -0.4182 -0.0256
vn 0.8067 -0.5907 0.0177
vn 0.1891 0.9771 0.0977
vn 0.8034 0.5917 0.0672
vn 0.8085 0.5822 0.0860
vn 0.8870 -0.2900 0.3594
vn 0.9047 0.4152 0.0955
vn 0.9077 0.4100 0.0889
vn 0.8705 0.4664 0.1570
vn 0.8726 0.4629 0.1562
vn 0.5742 0.2478 0.7803
vn 0.5492 0.1577 0.8207
vn 0.8553 0.4600 0.2386
vn 0.5071 0.2298 0.8307
vn 0.7738 0.6327 -0.0300
vn 0.4509 0.5552 -0.6989
vn 0.7885 0.6124 -0.0571
vn 0.4077 0.3316 -0.8508
vn 0.8225 0.4951 -0.2799
vn 0.4335 0.2876 -0.8540
vn 0.0190 0.1512 -0.9883
vn 0.5616 0.4995 -0.6596
vn 0.5676 0.4918 -0.6603
vn 0.5621 0.3790 -0.7351
vn 0.9175 0.3885 -0.0850
vn 0.8963 0.4330 -0.0953
vn 0.6745 -0.6098 -0.4160
vn 0.5340 -0.2526 -0.8069
vn 0.6319 -0.6976 -0.3377
vn 0.6638 -0.0892 0.7426
vn 0.6716 -0.5540 0.4920
vn 0.6469 -0.6477 0.4025
vn 0.5672 -0.8226 -0.0400
vn 0.3443 -0.7045 -0.6207
vn 0.9545 -0.2963 0.0341
vn 0.9392 -0.3124 0.1424
vn 0.3925 -0.7001 -0.5966
vn 0.0068 -0.9387 -0.3447
vn 0.9614 -0.2724 0.0380
vn 0.0308 -0.9072 -0.4197
vn 0.9504 -0.2380 -0.2003
vn 0.8873 -0.2496 -0.3878
vn 0.1099 -0.9731 0.2023
vn 0.5615 -0.7451 0.3598
vn 0.4329 -0.7624 0.4811
vn 0.5922 -0.7939 -0.1378
vn 0.9423 -0.2507 -0.2220
vn -0.0129 0.7098 -0.7043
vn -0.2110 0.9479 -0.2388
vn -0.3112 0.9376 -0.1553
vn -0.4225 0.9042 0.0628
vn -0.4546 0.7703 0.4471
vn 0.2236 0.9743 -0.0273
vn 0.4032 0.7933 0.4563
vn -0.0343 0.2602 0.9649
vn -0.1447 0.2225 0.9641
vn 0.1100 0.9685 -0.2236
vn -0.8047 0.5882 0.0800
vn -0.8316 0.5546 -0.0294
vn 0.2389 0.9704 -0.0357
vn -0.7366 0.6542 0.1714
vn 0.2613 0.9491 0.1757
vn 0.2477 0.9229 0.2946
vn -0.4079 0.8913 -0.1981
vn -0.3963 0.8951 0.2041
vn -0.4021 0.9032 0.1504
vn -0.4698 0.8472 -0.2481
vn -0.2960 0.9318 0.2103
vn -0.2119 0.8874 0.4094
vn -0.1050 0.8747 0.4731
vn 0.1793 0.5528 0.8138
vn 0.6752 0.7206 0.1580
vn 0.9874 0.1543 0.0347
vn 0.6549 0.7503 -0.0904
vn 0.3580 0.4981 0.7897
vn 0.5667 0.3096 0.7635
vn -0.0418 -0.1029 0.9938
vn -0.0537 -0.0753 0.9957
vn 0.6354 -0.2513 0.7301
vn 0.4251 -0.5463 0.7217
vn -0.0579 -0.0043 0.9983
vn 0.5650 -0.3827 0.7310
vn -0.0558 0.0397 0.9977
vn 0.1346 -0.3231 0.9367
vn -0.4351 0.2203 0.8730
vn 0.1084 -0.3082 0.9451
vn -0.0291 -0.2572 0.9659
vn 0.5068 0.2844 0.8138
vn -0.0534 -0.2314 0.9714
vn 0.6023 0.3645 0.7102
vn -0.5364 -0.3409 0.7721
vn 0.6951 0.1950 0.6919
vn 0.1075 -0.1798 0.9778
vn -0.6007 -0.0020 0.7995
vn -0.5516 0.1899 0.8122
vn 0.9829 -0.0382 -0.1802
vn 0.8086 0.5851 -0.0618
vn 0.9952 -0.0707 0.0684
vn 0.0951 0.5918 -0.8004
vn -0.1397 -0.1283 -0.9818
vn -0.1876 -0.0951 -0.9776
vn 0.0022 0.6546 -0.7560
vn -0.1779 0.6385 -0.7488
vn -0.0403 -0.0836 -0.9957
vn -0.0073 -0.1001 -0.9949
vn -0.1963 0.6160 -0.7629
vn 0.0245 -0.1163 -0.9929
vn 0.6095 0.3530 -0.7099
vn -0.5504 -0.3148 -0.7733
vn 0.5146 0.5049 -0.6930
vn 0.4879 0.5350 -0.6898
vn -0.6051 -0.2269 -0.7631
vn -0.4658 -0.4098 -0.7843
vn -0.1994 0.2553 -0.9461
vn 0.0588 -0.4907 -0.8693
vn -0.1999 0.2237 -0.9539
vn -0.1963 0.2024 -0.9594
vn 0.3147 -0.3778 -0.8707
vn 0.4102 -0.2775 -0.8687
vn -0.1992 0.1837 -0.9626
vn 0.3563 -0.3426 -0.8693
vn -0.2035 0.1545 -0.9668
vn -0.3925 -0.5786 -0.7150
vn 0.2668 0.6439 -0.7170
vn 0.1362 0.6943 -0.7066
vn -0.1849 -0.6446 -0.7418
vn -0.0550 0.7160 -0.6960
vn -0.0323 -0.9692 -0.2442
vn -0.5559 -0.3398 -0.7587
vn -0.7978 0.5975 -0.0802
vn -0.6635 -0.1312 -0.7366
vn -0.5386 -0.3613 -0.7612
vn -0.8588 0.5052 -0.0846
vn -0.5641 -0.3393 -0.7528
vn -0.6342 -0.2092 -0.7443
vn -0.3690 -0.5114 -0.7760
vn 0.1732 -0.9520 -0.2523
vn -0.8555 0.5110 -0.0843
vn 0.2454 -0.5296 -0.8119
vn -0.6475 0.4250 -0.6325
vn -0.6807 0.3841 -0.6238
vn 0.3447 -0.4714 -0.8118
vn 0.4580 -0.3689 -0.8088
vn -0.7584 0.1213 -0.6404
vn 0.5675 0.3227 -0.7575
vn -0.5642 -0.4428 -0.6968
vn -0.2235 -0.9634 0.1478
vn -0.4429 -0.7034 -0.5559
vn -0.1231 -0.9784 0.1661
vn -0.7271 -0.6309 0.2708
vn -0.8400 -0.4950 0.2224
vn -0.4645 -0.7589 -0.4564
vn -0.9447 -0.2637 -0.1951
vn -0.5705 0.1156 -0.8131
vn -0.4438 -0.3255 -0.8349
vn -0.7756 0.4338 -0.4586
vn -0.9779 0.0172 0.2082
vn -0.9553 0.1362 0.2623
vn -0.6085 0.4801 -0.6319
vn -0.7402 0.6525 0.1623
vn -0.8530 0.5137 -0.0922
vn -0.8270 0.5352 0.1719
vn -0.6637 0.6392 0.3885
vn -0.5185 0.7668 0.3783
vn -0.7400 0.6711 -0.0450
vn -0.4158 0.8999 0.1317
vn -0.7012 0.6621 0.2645
vn -0.6946 0.6653 0.2737
vn -0.4288 0.8863 0.1747
vn -0.4311 0.9020 0.0235
vn -0.8537 0.5177 -0.0564
vn -0.5701 0.7789 -0.2615
vn -0.6379 0.5561 0.5328
vn -0.5249 0.5249 0.6700
vn -0.5798 0.8042 -0.1309
vn -0.7150 0.6901 -0.1120
vn -0.7679 -0.3148 -0.5579
vn -0.5340 0.1353 0.8346
vn -0.7273 -0.4033 -0.5553
vn 0.1384 -0.3807 -0.9143
vn 0.7122 -0.4944 0.4982
vn 0.2547 -0.2663 -0.9296
vn 0.1864 -0.4930 -0.8498
vn 0.4397 -0.6218 0.6481
vn 0.5260 -0.5605 0.6397
vn 0.3139 0.6726 -0.6701
vn 0.1110 0.5326 0.8391
vn 0.2141 0.7092 -0.6717
vn 0.5207 0.6588 -0.5429
vn 0.2417 0.3323 0.9117
vn 0.0987 0.4122 0.9057
vn -0.5380 -0.2782 -0.7958
vn -0.7661 0.2043 0.6094
vn -0.7818 0.1084 0.6141
vn -0.7175 0.1012 0.6892
vn -0.8797 -0.1113 0.4623
vn -0.7021 -0.0725 0.7084
vn -0.6507 -0.4623 0.6024
vn -0.8011 -0.4932 0.3391
vn -0.6847 -0.6544 0.3208
vn -0.3448 -0.4107 0.8441
vn -0.4541 -0.6429 0.6168
vn -0.2192 -0.5685 0.7929
vn -0.2552 0.2151 0.9427
vn -0.1019 -0.0071 0.9948
vn -0.0908 0.1173 0.9889
vn -0.5928 -0.2833 0.7539
vn -0.6470 -0.1883 -0.7388
vn -0.8311 0.4963 0.2508
vn -0.8266 0.5040 0.2504
vn -0.6593 -0.1561 -0.7355
vn -0.8425 0.5322 -0.0833
vn 0.1282 -0.8048 0.5796
vn 0.1903 -0.9548 -0.2282
vn 0.0169 -0.9995 0.0260
vn 0.0377 -0.9814 -0.1880
vn 0.2163 -0.8912 -0.3986
vn 0.3988 -0.8323 -0.3851
vn 0.2109 -0.9765 0.0449
vn 0.5712 -0.8102 -0.1319
vn 0.2225 -0.9383 -0.2646
vn 0.2287 -0.9342 -0.2737
vn 0.5530 -0.8147 -0.1748
vn 0.5654 -0.8245 -0.0234
vn -0.0421 -0.9889 0.1426
vn 0.3295 -0.8793 0.3439
vn 0.1119 -0.8832 -0.4554
vn -0.0517 -0.5612 -0.8260
vn 0.4006 -0.9019 -0.1616
vn 0.2566 -0.9515 -0.1700
vn -0.5417 -0.3717 -0.7539
vn -0.4866 -0.4661 0.7388
vn 0.0142 -0.9679 -0.2509
vn 0.0231 -0.9679 -0.2504
vn -0.4648 -0.4930 0.7355
vn 0.0396 -0.9957 0.0833
vn 0.3029 -0.6583 0.6892
vn -0.8222 0.5129 0.2469
vn -0.4791 0.4449 0.7566
vn 0.2148 -0.6905 0.6907
vn 0.0083 -0.7157 0.6983
vn -0.8040 0.5404 0.2481
vn -0.8542 0.4590 0.2442
vn -0.3357 -0.6030 0.7237
vn -0.5814 -0.3052 0.7542
vn -0.5305 -0.4073 0.7434
vn -0.6210 -0.0629 0.7812
vn -0.0256 -0.9959 0.0863
vn 0.0586 -0.9949 0.0821
vn -0.6042 0.0836 0.7924
vn -0.5312 0.2670 0.8040
vn 0.0452 -0.9955 0.0829
vn -0.3891 0.4366 0.8111
vn 0.0612 -0.7728 0.6317
vn -0.0425 -0.7800 0.6243
vn 0.2737 0.5498 0.7892
vn 0.4026 0.4828 0.7777
vn 0.6868 -0.1381 0.7136
vn -0.6435 0.2170 0.7340
vn -0.6703 -0.2554 0.6968
vn 0.1683 0.5806 0.7966
vn -0.4541 -0.5987 0.6598
vn -0.1742 -0.7546 0.6327
vn -0.7039 0.0129 0.7102
vn -0.9962 0.0615 -0.0621
vn -0.7230 -0.2746 0.6339
vn -0.7831 -0.3284 0.5282
vn -0.9803 -0.0105 -0.1973
vn -0.9659 -0.1471 -0.2128
vn -0.6487 -0.7611 0.0047
vn -0.1893 -0.7068 0.6816
vn -0.4588 -0.4891 0.7418
vn -0.0223 -0.9157 0.4011
vn -0.5214 -0.8207 -0.2339
vn -0.4104 -0.8631 -0.2943
vn -0.7470 0.1792 0.6403
vn -0.5296 0.0198 -0.8480
vn -0.7127 0.2808 0.6428
vn 0.2996 0.3363 0.8928
vn -0.1879 0.8805 -0.4353
vn -0.1164 0.8887 -0.4434
vn 0.5629 0.6080 0.5599
vn -0.0452 0.5854 -0.8094
vn 0.6295 0.5539 0.5449
vn 0.1672 -0.5692 0.8050
vn 0.7122 -0.3748 -0.5935
vn 0.6612 -0.4446 -0.6042
vn 0.1516 -0.8840 0.4422
vn 0.3128 -0.2548 -0.9150
vn 0.0800 -0.8948 0.4392
vn -0.4443 -0.1495 0.8833
vn -0.6584 -0.4634 -0.5931
vn -0.7178 -0.3742 -0.5871
vn -0.8698 -0.0925 -0.4846
vn -0.9430 -0.2344 -0.2362
vn -0.9805 0.0239 -0.1948
vn -0.2527 -0.2448 -0.9361
vn -0.4793 -0.4084 -0.7768
vn -0.3379 -0.1761 -0.9246
vn -0.1908 0.4431 0.8759
vn 0.3516 0.7007 0.6209
vn -0.2546 0.5174 0.8170
vn 0.4930 0.5887 0.6406
vn 0.0549 0.1778 0.9825
vn 0.6243 0.3614 0.6926
vn 0.6549 0.2266 0.7209
vn 0.1326 -0.0720 0.9886
vn 0.1655 -0.1508 0.9746
vn 0.7868 -0.0097 0.6172
vn 0.4066 -0.5230 0.7491
vn 0.4599 -0.5872 0.6661
vn 0.7838 -0.0089 0.6209
vn 0.4323 -0.5793 0.6910
vn 0.8770 -0.1469 0.4574
vn 0.3120 -0.4186 -0.8529
vn 0.7969 -0.0590 -0.6013
vn 0.3471 -0.5083 -0.7882
vn 0.7577 0.1475 -0.6357
vn 0.1872 -0.0310 -0.9818
vn 0.6281 0.3689 -0.6851
vn 0.5113 0.4697 -0.7197
vn -0.0295 0.2008 -0.9792
vn -0.0744 0.2647 -0.9615
vn 0.3921 0.7411 -0.5451
vn -0.2539 0.7185 -0.6476
vn -0.2734 0.7898 -0.5491
vn 0.3889 0.6857 -0.6153
vn -0.2803 0.6686 -0.6888
vn 0.3166 0.8336 -0.4527
vn 0.3442 0.9041 0.2531
vn 0.3243 0.9386 0.1175
vn 0.9560 -0.2926 -0.0223
vn 0.7466 0.0700 -0.6615
vn 0.4858 0.5218 -0.7012
vn 0.7171 0.2598 0.6467
vn 0.7176 0.2588 0.6466
vn 0.4689 0.5515 -0.6899
vn 0.7663 0.1745 0.6184
vn 0.9560 -0.2930 0.0159
vn 0.9440 -0.2723 -0.1860
vn 0.3461 0.9012 0.2608
vn 0.4420 0.7363 -0.5123
vn 0.7499 0.0646 0.6584
vn 0.8973 -0.1905 0.3982
vn 0.7634 0.1792 0.6205
vn 0.4570 0.5725 -0.6808
vn 0.2982 0.8475 -0.4392
vn 0.8935 -0.0495 -0.4463
vn 0.2276 0.9694 0.0921
vn 0.2553 0.9214 0.2931
vn 0.9592 -0.1623 -0.2315
vn 0.2731 0.8895 0.3664
vn 0.9253 -0.1019 -0.3652
vn 0.5263 0.5905 -0.6119
vn 0.7617 0.0441 0.6465
vn 0.4814 0.6681 -0.5674
vn 0.7080 0.2762 -0.6500
vn 0.3916 0.6845 0.6149
vn 0.6642 0.2123 0.7167
vn 0.9299 -0.0411 0.3654
vn -0.0778 -0.7991 0.5962
vn 0.0171 -0.6993 0.7146
vn 0.9255 -0.1810 -0.3326
vn -0.0260 -0.7451 -0.6665
vn 0.9564 -0.2344 -0.1743
vn 0.7650 -0.0709 -0.6401
vn -0.2609 -0.1507 -0.9535
vn -0.4076 -0.3196 -0.8554
vn 0.9211 -0.2181 0.3225
vn 0.7252 -0.4474 0.5235
vn 0.9405 -0.3048 -0.1501
vn 0.9290 -0.3157 -0.1932
vn 0.7897 -0.4432 0.4243
vn 0.8689 -0.4020 0.2889
vn 0.4494 0.8932 -0.0127
vn 0.5290 0.7893 0.3115
vn 0.5556 0.7015 0.4464
vn 0.1879 0.8976 -0.3988
vn 0.2796 0.9196 -0.2759
vn 0.3325 0.9243 0.1875
vn 0.2688 0.9578 0.1015
vn -0.5461 0.3889 0.7420
vn -0.6814 0.3623 0.6360
vn 0.2799 0.9343 0.2209
vn -0.9309 0.2771 0.2381
vn 0.2611 0.9630 0.0661
vn 0.2931 0.7857 0.5447
vn -0.2186 0.3453 0.9127
vn 0.3576 0.8758 0.3241
vn 0.5373 0.4207 0.7310
vn 0.6616 0.3881 0.6416
vn 0.7053 0.0624 0.7061
vn 0.7447 -0.0948 0.6606
vn 0.6838 0.2685 0.6784
vn 0.7702 0.1121 0.6279
vn 0.9016 -0.2164 0.3745
vn 0.9514 -0.1151 0.2856
vn 0.3344 -0.6075 0.7205
vn 0.8783 -0.2150 -0.4271
vn 0.2768 -0.4094 -0.8694
vn 0.9385 -0.1522 -0.3101
vn 0.7992 0.0343 -0.6001
vn 0.8209 0.1895 -0.5386
vn 0.5820 0.3949 -0.7109
vn 0.2578 0.7306 -0.6322
vn 0.5283 0.5067 -0.6813
vn 0.4354 0.6618 -0.6103
vn 0.1938 0.8440 -0.5001
vn 0.3394 0.9253 -0.1693
vn -0.4159 0.5467 -0.7268
vn -0.3278 0.6968 -0.6379
vn -0.9668 0.1728 -0.1880
vn -0.4574 0.6356 -0.6219
vn 0.8662 0.4996 -0.0000
vn 0.8745 -0.1790 -0.4507
vn 0.5582 0.3693 -0.7430
vn 0.9503 -0.3079 -0.0465
vn 0.8757 -0.1760 -0.4497
vn 0.8660 0.5000 -0.0006
vn 0.7541 -0.4854 0.4423
vn 0.6098 0.6188 0.4953
vn 0.8127 -0.4723 0.3414
vn 0.7290 -0.4470 0.5184
vn 0.4693 0.5133 0.7185
vn 0.5811 0.6297 0.5156
vn -0.9003 0.0980 0.4241
vn -0.1805 -0.6517 0.7367
vn -0.2428 -0.7126 0.6582
vn -0.6026 0.3086 -0.7359
vn 0.1626 -0.4977 -0.8520
vn 0.1673 -0.4949 -0.8527
vn 0.3588 0.8990 0.2512
vn -0.3717 0.7740 -0.5125
vn 0.0374 0.8756 -0.4815
vn -0.1710 0.9494 -0.2636
vn 0.0798 0.9507 0.2997
vn -0.3818 0.8512 0.3600
vn 0.3717 -0.5510 -0.7471
vn 0.9789 -0.1794 0.0979
vn 0.6814 -0.2726 -0.6792
vn 0.5674 -0.8202 0.0733
vn 0.8849 -0.4646 0.0329
vn 0.6644 -0.5290 -0.5279
vn 0.7478 -0.6508 -0.1313
vn 0.4811 -0.7313 -0.4835
vn 0.4698 -0.8432 -0.2613
vn -0.1435 0.9896 0.0108
vn -0.4147 0.8370 0.3569
vn -0.4794 0.8742 0.0771
vn -0.3611 0.8632 -0.3527
vn -0.5101 0.2425 -0.8252
vn -0.3746 0.2631 -0.8891
vn -0.3228 0.7948 -0.5139
vn -0.1612 0.1475 -0.9758
vn -0.3380 0.7879 -0.5148
vn -0.1921 0.9805 0.0424
vn 0.5965 0.7942 0.1162
vn -0.1800 0.9788 0.0978
vn -0.6443 0.6310 0.4321
vn 0.1493 0.8149 0.5600
vn 0.0803 0.6610 0.7461
vn -0.7875 -0.0715 0.6121
vn -0.6734 -0.7288 0.1245
vn -0.8344 -0.5507 -0.0205
vn 0.4816 -0.7770 0.4054
vn 0.7398 -0.6599 -0.1313
vn 0.2748 -0.9123 0.3036
vn 0.8348 -0.5337 0.1352
vn 0.8620 -0.2986 -0.4095
vn 0.7777 -0.5642 -0.2770
vn 0.9021 -0.4172 -0.1102
vn 0.3983 -0.8451 -0.3568
vn 0.8433 -0.5179 0.1435
vn -0.3778 -0.5621 -0.7357
vn -0.7095 -0.6756 -0.2004
vn -0.2390 -0.7888 -0.5662
vn 0.3720 -0.7255 -0.5790
vn -0.3128 -0.8563 -0.4109
vn 0.0737 -0.9310 -0.3576
vn -0.0120 -0.9948 0.1009
vn 0.5172 -0.6799 0.5198
vn 0.2690 -0.9607 -0.0678
vn 0.1115 -0.9695 0.2184
vn 0.4902 -0.5826 0.6483
vn 0.4703 -0.8139 0.3412
vn 0.5109 0.6235 0.5918
vn 0.4795 0.8103 0.3369
vn 0.5125 0.6244 0.5895
vn 0.8377 -0.1389 0.5282
vn 0.7895 0.1648 0.5913
vn 0.8425 -0.1424 0.5196
vn 0.5843 -0.7880 0.1941
vn 0.6975 -0.5964 0.3972
vn 0.6952 -0.5884 0.4129
vn 0.0359 0.0164 0.9992
vn 0.3046 -0.1404 0.9421
vn 0.0105 -0.2016 0.9794
vn -0.7573 0.5281 0.3842
vn -0.5900 0.4819 0.6478
vn -0.8030 0.3672 0.4694
vn -0.0504 -0.4262 0.9032
vn 0.0515 -0.2295 0.9719
vn -0.0906 -0.1260 0.9879
vn 0.8772 0.4604 0.1363
vn 0.3371 0.9385 -0.0753
vn 0.7312 0.5940 0.3355
vn 0.3497 -0.5905 -0.7274
vn 0.2977 -0.3297 -0.8959
vn 0.1638 -0.5584 -0.8132
vn -0.1929 0.8667 -0.4601
vn 0.0112 0.8442 -0.5359
vn -0.0084 0.7341 -0.6790
vn 0.9622 -0.1521 -0.2257
vn 0.8495 0.5098 0.1357
vn 0.9187 0.2810 0.2774
vn 0.0428 0.7554 -0.6538
vn 0.0217 0.7353 0.6774
vn 0.3024 0.6660 0.6819
vn 0.5008 0.5239 -0.6890
vn 0.6893 0.3271 0.6465
vn 0.6709 0.2709 -0.6903
vn 0.7116 0.2099 -0.6705
vn 0.6892 0.2864 0.6656
vn 0.7365 0.0001 0.6764
vn 0.4339 -0.6119 -0.6613
vn 0.3984 -0.6265 0.6699
vn 0.1283 -0.7388 0.6616
vn 0.3821 -0.6359 -0.6706
vn 0.0976 -0.7463 0.6584
vn 0.1033 -0.7361 -0.6689
vn -0.4833 -0.5678 -0.6664
vn -0.6170 -0.3971 0.6795
vn -0.6667 -0.3475 -0.6594
vn -0.4681 -0.5683 -0.6767
vn -0.4182 -0.6235 0.6606
vn -0.6160 -0.4145 0.6699
vn -0.6532 0.3571 -0.6677
vn -0.5239 0.5132 0.6798
vn -0.4668 0.5914 -0.6575
vn -0.6606 0.2891 -0.6928
vn -0.7270 0.2247 0.6488
vn -0.5987 0.4499 0.6627
vn -0.1988 0.8103 -0.5513
vn -0.2824 0.8184 0.5005
vn 0.0990 0.8674 0.4877
vn 0.0137 0.7065 -0.7076
vn 0.4346 0.8528 0.2896
vn 0.3123 0.6354 -0.7062
vn 0.7000 0.1733 -0.6928
vn 0.9069 0.1642 0.3881
vn 0.7581 -0.1708 -0.6294
vn 0.8541 -0.2529 -0.4545
vn 0.8352 0.0279 0.5493
vn 0.6967 -0.3936 0.5997
vn 0.4196 -0.4957 -0.7604
vn 0.2121 -0.9526 0.2182
vn 0.0814 -0.6362 -0.7672
vn -0.5627 -0.5652 -0.6033
vn -0.5967 -0.6327 0.4937
vn -0.7785 -0.3272 -0.5356
vn -0.7650 -0.4208 -0.4875
vn -0.5478 -0.6536 0.5222
vn -0.7761 -0.2772 0.5665
vn -0.6254 0.1442 -0.7669
vn -0.7843 0.5738 0.2358
vn -0.4447 0.4740 -0.7600
vn 0.0234 0.0478 0.9986
vn 0.3508 -0.2165 0.9111
vn 0.4408 0.0334 0.8970
vn -0.0420 -0.0102 -0.9991
vn -0.2461 -0.3588 -0.9004
vn -0.3994 -0.1960 -0.8956
vn 0.6754 -0.3428 -0.6529
vn 0.7583 -0.0606 -0.6491
vn 0.8827 -0.2730 0.3826
vn 0.5985 0.0853 0.7966
vn 0.7896 0.6008 -0.1248
vn 0.3619 0.4277 0.8283
vn -0.2338 0.7957 -0.5588
vn -0.4915 0.6887 -0.5330
vn -0.2858 0.8088 0.5139
vn -0.3588 0.5674 0.7412
vn -0.8162 0.5274 -0.2360
vn -0.5819 0.2836 0.7622
vn -0.6569 -0.4625 0.5955
vn -0.7713 -0.4517 -0.4484
vn -0.4491 -0.7042 0.5499
vn -0.7710 -0.4513 -0.4494
vn -0.5909 -0.6564 -0.4690
vn -0.5173 -0.6338 0.5750
vn 0.0745 -0.6016 0.7953
vn 0.2748 -0.9426 -0.1898
vn 0.4379 -0.4750 0.7633
vn 0.2790 0.4368 0.8552
vn -0.4605 -0.6719 0.5801
vn 0.1413 0.4873 0.8617
vn -0.1368 0.6949 0.7060
vn -0.4413 -0.6274 0.6415
vn 0.6831 0.1003 0.7234
vn 0.5369 -0.4347 0.7230
vn -0.6203 0.3716 0.6907
vn 0.4894 -0.5006 0.7140
vn 0.9894 0.1248 0.0743
vn 0.0443 0.5286 0.8477
vn 0.0430 -0.2277 0.9728
vn -0.0667 -0.9881 -0.1385
vn 0.7496 -0.0917 0.6555
vn -0.3203 -0.9165 0.2396
vn 0.1235 0.0318 0.9918
vn 0.1267 0.9901 0.0599
vn -0.5547 0.8158 0.1639
vn 0.3772 0.7004 0.6060
vn -0.3496 -0.4893 0.7990
vn -0.0351 -0.5624 0.8261
vn -0.7534 0.2375 0.6131
vn 0.2815 -0.4469 0.8491
vn 0.5871 -0.0036 0.8095
vn 0.2173 -0.0697 0.9736
vn -0.3820 0.8911 0.2450
vn -0.8682 0.4227 0.2599
vn 0.3338 -0.5398 -0.7728
vn -0.8004 -0.4006 -0.4459
vn -0.8571 -0.2142 -0.4685
vn 0.7135 -0.2758 -0.6441
vn -0.4573 0.4888 -0.7429
vn 0.7474 0.5729 -0.3365
vn 0.8998 0.2580 0.3518
vn 0.4222 0.8248 0.3760
vn 0.7690 0.3521 0.5335
vn 0.6359 -0.5054 -0.5833
vn -0.6548 -0.1183 -0.7465
vn 0.6149 -0.5347 -0.5796
vn 0.6157 0.2407 -0.7503
vn -0.7789 0.2376 -0.5804
vn -0.7592 0.3351 -0.5580
vn -0.0702 -0.2648 -0.9617
vn -0.5087 0.7844 -0.3548
vn 0.1061 0.9383 -0.3291
vn 0.3512 0.1559 0.9232
vn -0.8930 0.1033 0.4381
vn 0.3447 -0.3113 0.8856
vn -0.1970 -0.0914 0.9761
vn -0.2156 -0.9757 -0.0380
vn 0.3139 -0.1693 0.9342
vn 0.6433 -0.6229 -0.4452
vn -0.4141 0.1205 -0.9022
vn -0.1100 0.4185 -0.9015
vn 0.1346 0.8845 -0.4466
vn -0.4978 -0.3454 -0.7955
vn 0.1168 0.9018 -0.4160
vn -0.0634 0.2376 0.9693
vn 0.5968 -0.7845 0.1687
vn 0.6851 -0.7102 0.1622
vn -0.8930 0.1032 0.4381
vn 0.7531 -0.0153 -0.6577
vn 0.7390 -0.0561 0.6714
vn 0.6638 -0.3491 0.6615
vn 0.7189 -0.1590 -0.6767
vn 0.5893 -0.4958 0.6379
vn 0.5743 -0.4306 -0.6963
vn -0.1270 -0.7487 -0.6507
vn -0.1097 -0.7231 0.6820
vn -0.3867 -0.6208 0.6820
vn -0.4619 -0.5638 -0.6847
vn -0.6602 -0.3743 0.6512
vn -0.6533 -0.3339 -0.6795
vn -0.7567 -0.0147 -0.6537
vn -0.7316 -0.0546 0.6796
vn -0.6896 0.2328 0.6857
vn -0.1996 0.6972 -0.6885
vn -0.1407 0.7597 0.6348
vn 0.1222 0.7611 0.6370
vn -0.3391 0.6632 -0.6673
vn -0.0555 0.7426 0.6674
vn -0.0745 0.7338 -0.6752
vn 0.5358 0.7315 -0.4217
vn 0.2221 0.7680 0.6007
vn 0.5590 0.5484 0.6219
vn 0.5728 0.0403 -0.8187
vn 0.9290 -0.3365 0.1542
vn 0.4751 -0.3683 -0.7992
vn 0.4202 -0.7359 -0.5309
vn 0.6169 -0.6131 0.4935
vn 0.2374 -0.8175 0.5247
vn -0.0560 -0.6313 -0.7735
vn -0.4512 -0.8626 0.2288
vn -0.4200 -0.4994 -0.7578
vn -0.8202 -0.2885 -0.4940
vn -0.7711 -0.3607 0.5247
vn -0.8430 0.0710 0.5332
vn -0.7522 -0.1095 -0.6498
vn -0.8693 0.3827 0.3127
vn -0.7038 0.2205 -0.6754
vn -0.0926 0.6445 -0.7590
vn -0.0661 0.9585 0.2774
vn 0.2524 0.6523 -0.7147
vn 0.1247 -0.4429 0.8879
vn 0.3203 -0.3250 0.8898
vn 0.0155 -0.0423 0.9990
vn -0.1716 0.9534 0.2482
vn -0.7471 -0.1561 0.6461
vn 0.3554 0.8490 0.3911
vn 0.8635 -0.4262 0.2698
vn 0.1153 0.5626 0.8187
vn 0.5476 -0.7871 0.2838
vn 0.5823 -0.4095 -0.7023
vn 0.2435 0.9585 -0.1482
vn 0.7373 0.6755 -0.0086
vn -0.0493 0.4617 -0.8857
vn 0.0143 0.0663 -0.9977
vn -0.2564 0.3648 -0.8951
vn 0.2876 -0.5436 0.7885
vn 0.5780 -0.7886 -0.2098
vn 0.5962 -0.3046 0.7428
vn 0.9099 -0.0525 0.4114
vn 0.7666 -0.1106 -0.6325
vn 0.7669 0.1830 -0.6151
vn 0.6045 0.2108 0.7682
vn 0.6735 0.7179 -0.1759
vn 0.3329 0.4913 0.8049
vn -0.2007 0.8327 0.5162
vn -0.2156 0.8244 -0.5233
vn -0.4764 0.7140 -0.5132
vn -0.2033 0.7530 0.6259
vn -0.6997 0.6381 -0.3213
vn -0.4841 0.5133 0.7086
vn -0.6219 -0.4081 0.6684
vn -0.8006 -0.4777 -0.3618
vn -0.3841 -0.6938 0.6092
vn -0.6354 -0.5646 -0.5269
vn -0.4059 -0.7270 -0.5537
vn -0.3708 -0.7912 0.4863
vn 0.6018 0.2526 0.7576
vn -0.6143 0.3522 0.7061
vn 0.3162 -0.7609 0.5666
vn 0.4660 -0.2549 0.8473
vn -0.2395 0.8369 0.4921
vn -0.5970 0.6137 0.5167
vn 0.3836 -0.5736 0.7238
vn -0.7216 -0.1623 0.6731
vn 0.5144 -0.4524 0.7285
vn -0.7654 -0.5156 -0.3852
vn 0.3599 -0.7755 0.5188
vn -0.9152 -0.4021 0.0263
vn -0.3944 -0.1215 0.9109
vn 0.8344 0.3797 0.3995
vn 0.3728 0.8081 0.4560
vn 0.6451 0.6635 0.3788
vn 0.9533 0.0386 0.2995
vn 0.3011 0.3637 -0.8815
vn 0.1345 0.7712 0.6222
vn -0.0629 -0.6170 0.7845
vn 0.2269 0.7489 0.6226
vn -0.2988 0.6895 0.6598
vn -0.1545 -0.5859 0.7956
vn 0.4100 -0.4832 0.7736
vn -0.8713 0.1891 -0.4529
vn 0.4370 0.3204 -0.8405
vn -0.8670 0.0428 -0.4965
vn -0.1457 -0.7479 -0.6476
vn 0.9388 -0.0122 -0.3443
vn 0.9993 0.0194 -0.0313
vn 0.7748 0.6179 0.1337
vn 0.3424 -0.1407 -0.9289
vn -0.0589 0.3672 -0.9283
vn -0.2654 0.7396 -0.6186
vn 0.4851 -0.4472 -0.7515
vn -0.1724 -0.5683 -0.8046
vn 0.2671 0.7295 -0.6297
vn -0.1495 -0.5908 -0.7928
vn 0.2419 0.7535 -0.6113
vn 0.4924 -0.5723 -0.6558
vn -0.5713 -0.0135 -0.8206
vn 0.7276 0.5027 -0.4669
vn -0.0577 0.0164 -0.9982
vn -0.6572 0.7537 -0.0064
vn -0.0863 0.9960 -0.0248
vn -0.0835 -0.5449 -0.8343
vn 0.3272 0.7561 -0.5668
vn -0.0409 -0.5486 -0.8351
vn -0.4368 -0.0959 -0.8944
vn 0.3955 0.7821 -0.4816
vn 0.7710 0.4184 -0.4800
vn -0.2628 0.4420 0.8576
vn -0.6329 -0.7076 0.3143
vn -0.6158 -0.7214 0.3168
vn -0.8978 -0.2740 0.3447
vn -0.1878 -0.6318 -0.7521
vn -0.8487 -0.3793 0.3686
vn 0.1423 -0.2202 0.9650
vn -0.1636 -0.9857 -0.0393
vn 0.4999 -0.1647 0.8503
vn 0.3564 -0.8579 0.3702
vn -0.1644 -0.4099 -0.8972
vn 0.3488 -0.8606 0.3710
vn 0.1269 -0.0270 0.9915
vn -0.0030 -0.9963 -0.0864
vn 0.0885 -0.9921 -0.0885
vn 0.4370 0.3204 -0.8404
vn -0.8978 -0.2740 0.3448
vn -0.4533 -0.7369 -0.5016
vn -0.8962 0.2211 0.3847
vn -0.4112 -0.8096 -0.4188
vn -0.4397 -0.7618 0.4757
vn -0.9280 0.2777 -0.2484
vn -0.6859 -0.1417 -0.7138
vn -0.7794 -0.1716 0.6026
vn -0.4674 -0.5220 -0.7135
vn -0.8702 -0.0141 0.4925
vn -0.9481 0.1205 0.2942
vn -0.4116 -0.6184 -0.6695
vn -0.2115 -0.9650 -0.1553
vn -0.9578 0.1369 -0.2529
vn -0.2090 -0.9689 0.1324
vn -0.9304 0.0898 -0.3553
vn 0.5249 0.6120 -0.5916
vn 0.5810 0.3259 0.7459
vn 0.4028 0.8232 -0.4001
vn 0.9756 -0.1686 0.1405
vn 0.2057 0.9753 -0.0801
vn 0.9647 -0.1497 0.2168
vn 0.7837 0.1635 -0.5992
vn 0.2612 0.8795 0.3979
vn 0.5343 0.4067 0.7410
vn 0.5114 0.4585 -0.7268
vn -0.7666 -0.0066 -0.6421
vn 0.3674 0.6971 -0.6157
vn 0.3505 0.7048 -0.6167
vn -0.7805 -0.0004 -0.6252
vn -0.8929 0.1870 -0.4097
vn 0.2038 0.9753 -0.0854
vn -0.9474 0.3159 -0.0509
vn -0.9262 0.2880 0.2435
vn 0.2058 0.9688 -0.1378
vn -0.9348 0.2993 0.1910
vn 0.2137 0.9638 0.1597
vn 0.3137 0.8171 0.4836
vn -0.7470 -0.0190 0.6646
vn 0.4317 0.6045 0.6695
vn 0.4679 0.5076 0.7234
vn -0.7078 -0.1220 0.6958
vn -0.5610 -0.3857 0.7325
vn 0.8270 -0.1150 0.5503
vn -0.3137 -0.7917 0.5242
vn -0.2256 -0.9352 0.2731
vn 0.8656 -0.1618 0.4739
vn -0.2009 -0.9612 0.1889
vn 0.9385 -0.2809 0.2008
vn 0.8935 -0.2172 -0.3931
vn -0.2588 -0.8779 -0.4030
vn -0.3628 -0.6932 -0.6228
vn 0.8775 -0.1803 -0.4444
vn -0.3863 -0.6414 -0.6629
vn 0.7658 0.0189 -0.6428
vn -0.8784 0.0132 0.4777
vn 0.4240 0.7933 0.4369
vn -0.7577 -0.1897 0.6244
vn -0.4977 -0.6596 0.5632
vn 0.8360 0.0820 0.5426
vn -0.3981 -0.8382 0.3728
vn -0.3828 -0.8839 0.2688
vn 0.8718 -0.0031 0.4899
vn 0.9518 -0.1451 0.2703
vn -0.5596 -0.5159 -0.6487
vn 0.8888 -0.0027 -0.4582
vn 0.7728 0.2075 -0.5998
vn -0.4243 -0.7812 -0.4580
vn 0.9064 -0.0492 -0.4195
vn -0.5339 -0.5847 -0.6108
vn -0.9276 0.0639 -0.3681
vn 0.3764 0.8554 -0.3559
vn -0.9820 0.1535 -0.1098
vn -0.9460 0.1149 -0.3030
vn 0.4598 0.7345 -0.4992
vn 0.3711 0.8839 -0.2845
vn -0.7944 -0.1281 0.5938
vn 0.3981 0.8359 0.3778
vn 0.5058 0.6560 0.5602
vn -0.4068 0.6265 0.6649
vn -0.2446 0.7165 0.6533
vn 0.4335 -0.4955 0.7527
vn -0.0575 0.9859 -0.1570
vn 0.8215 0.0813 0.5643
vn 0.7303 0.0507 0.6812
vn 0.8766 -0.4376 -0.2003
vn 0.2846 0.9583 0.0249
vn 0.2786 0.9518 -0.1279
vn -0.3102 -0.3070 -0.8997
vn -0.2891 0.9216 -0.2590
vn -0.5043 0.8322 -0.2307
vn 0.1371 -0.3449 -0.9286
vn -0.2466 0.8758 -0.4149
vn 0.1395 -0.3332 -0.9325
vn -0.6272 0.7507 0.2077
vn -0.4146 -0.6117 0.6737
vn -0.4940 -0.6707 0.5532
vn -0.9618 0.2718 0.0321
vn -0.1450 -0.8581 0.4926
vn -0.9590 0.2534 -0.1266
vn -0.9187 0.2904 0.2675
vn -0.9280 0.3074 -0.2106
vn -0.3481 -0.9133 0.2115
vn -0.3968 -0.8114 0.4292
vn -0.8647 0.1463 -0.4805
vn -0.7064 -0.1437 -0.6931
vn -0.3475 -0.9126 0.2155
vn -0.3312 -0.9426 -0.0424
vn -0.9121 0.2778 0.3013
vn -0.8399 0.1036 0.5327
vn -0.4309 -0.7522 -0.4985
vn -0.6928 -0.1677 0.7014
vn -0.2318 0.7654 0.6004
vn -0.3040 0.3532 -0.8848
vn -0.0143 0.8049 0.5933
vn 0.4876 0.0548 0.8714
vn 0.5843 0.5091 -0.6320
vn 0.7005 0.3215 -0.6371
vn 0.6772 -0.0487 0.7342
vn 0.6089 0.2069 -0.7658
vn 0.6273 -0.3018 0.7180
vn -0.2069 -0.6089 0.7658
vn 0.3018 -0.6273 -0.7180
vn 0.0487 -0.6772 -0.7342
vn -0.3215 -0.7005 0.6371
vn -0.0548 -0.4876 -0.8714
vn -0.5091 -0.5843 0.6320
vn -0.3532 0.3040 0.8848
vn -0.8049 0.0143 -0.5933
vn -0.7654 0.2318 -0.6004
vn 0.1126 0.0213 -0.9934
vn -0.6366 -0.0772 -0.7674
vn -0.5677 -0.2921 -0.7697
vn -0.4834 -0.3930 -0.7823
vn 0.0748 0.1197 -0.9900
vn 0.1132 0.0709 -0.9910
vn -0.5464 0.3167 -0.7753
vn 0.1240 -0.0242 -0.9920
vn 0.0818 -0.0939 -0.9922
vn 0.2864 -0.5549 -0.7811
vn -0.0564 0.1224 -0.9909
vn 0.0031 0.1419 -0.9899
vn 0.0209 -0.0278 -0.9994
vn 0.4721 0.4239 -0.7730
vn 0.0198 -0.0281 -0.9994
vn -0.0404 -0.1230 -0.9916
vn -0.1460 0.6348 -0.7587
vn -0.3661 0.5465 -0.7532
vn -0.0394 -0.1071 -0.9935
vn -0.2932 0.6178 -0.7296
vn -0.0088 -0.1078 -0.9941
vn 0.5527 -0.3151 -0.7715
vn 0.0012 0.0068 -1.0000
vn 0.0005 0.0061 -1.0000
vn 0.2231 -0.6355 -0.7392
vn -0.0045 0.0013 -1.0000
vn 0.2007 -0.6481 -0.7346
vn 0.6707 -0.0837 -0.7370
vn -0.1068 0.0279 -0.9939
vn -0.0996 0.0492 -0.9938
vn 0.6205 -0.2718 -0.7356
vn -0.0664 -0.0243 -0.9975
vn -0.0323 0.0600 -0.9977
vn 0.4691 0.4468 -0.7618
vn -0.0614 -0.0202 -0.9979
vn 0.5815 0.2804 -0.7637
vn 0.0677 -0.0960 -0.9931
vn -0.1815 0.6409 -0.7458
vn -0.2921 0.5934 -0.7500
vn 0.6010 0.2410 -0.7620
vn -0.0464 -0.0719 -0.9963
vn -0.0606 -0.0331 -0.9976
vn 0.0715 -0.0728 -0.9948
vn 0.0159 -0.0908 -0.9957
vn -0.1659 0.6352 -0.7543
vn 0.4450 -0.5233 -0.7267
vn -0.0247 0.0874 -0.9959
vn 0.3057 -0.6118 -0.7295
vn -0.5333 -0.4095 -0.7402
vn 0.6167 0.2814 -0.7352
vn -0.6161 -0.2691 -0.7402
vn -0.6125 -0.2781 -0.7399
vn 0.6202 0.2728 -0.7355
vn 0.5372 0.4133 -0.7353
vn 0.2069 0.6089 0.7658
vn -0.3018 0.6273 -0.7180
vn -0.0487 0.6772 -0.7342
vn 0.0487 0.6772 0.7342
vn -0.2069 0.6089 -0.7658
vn 0.3018 0.6273 0.7180
vn 0.4526 -0.4839 0.7490
vn 0.7206 0.0519 -0.6914
vn 0.6811 -0.1683 -0.7126
vn 0.6211 -0.3356 0.7082
vn 0.6571 0.0570 -0.7517
vn 0.5016 -0.5259 0.6869
vn -0.6571 0.0570 0.7517
vn -0.5016 -0.5259 -0.6869
vn -0.6211 -0.3356 -0.7082
vn -0.6811 -0.1683 0.7126
vn -0.4526 -0.4839 -0.7490
vn -0.7206 0.0519 0.6914
vn -0.8816 0.2293 0.4125
vn -0.4749 0.7506 0.4595
vn -0.3209 0.7751 -0.5443
vn -0.3914 0.8017 -0.4517
vn -0.4914 0.6771 0.5477
vn -0.5200 0.7203 0.4591
vn -0.6168 -0.3345 0.7125
vn 0.3418 -0.7587 0.5546
vn -0.0835 -0.0807 0.9932
vn -0.7397 -0.0915 0.6667
vn -0.2670 0.2614 0.9276
vn -0.8237 0.0963 0.5588
vn -0.8298 0.1010 0.5489
vn -0.3070 0.2813 0.9092
vn -0.3435 0.3408 0.8751
vn -0.6175 -0.2392 0.7494
vn 0.0689 -0.2745 0.9591
vn 0.0487 -0.2453 0.9682
vn 0.0543 -0.2567 0.9650
vn -0.2299 0.5794 0.7819
vn -0.5044 -0.4835 0.7154
vn 0.1089 -0.4144 0.9035
vn -0.4889 -0.5668 0.6631
vn -0.3821 -0.7427 0.5499
vn 0.4733 -0.7958 -0.3778
vn 0.3122 -0.7721 0.5535
vn 0.3008 -0.7285 0.6154
vn 0.5960 -0.6594 -0.4582
vn 0.3867 -0.7476 0.5399
vn -0.2483 -0.8651 0.4357
vn 0.2142 0.9766 0.0189
vn 0.8823 -0.1561 -0.4440
vn 0.2334 0.9723 0.0126
vn -0.0616 -0.9923 0.1074
vn -0.1102 -0.9776 0.1795
vn 0.0269 -0.9916 0.1266
vn 0.1731 -0.9490 0.2636
vn 0.2517 -0.7905 -0.5583
vn 0.2953 -0.9076 0.2984
vn 0.6325 -0.7741 -0.0253
vn 0.2862 -0.5934 -0.7523
vn 0.5414 -0.3372 -0.7702
vn 0.7777 -0.6052 0.1700
vn 0.8411 -0.1397 -0.5226
vn 0.8680 -0.4441 0.2223
vn 0.0420 0.9739 -0.2230
vn -0.1455 0.9620 -0.2312
vn -0.0714 0.8158 0.5739
vn 0.0313 0.8269 0.5615
vn -0.3048 0.9375 -0.1679
vn -0.4632 0.8795 -0.1091
vn -0.1234 0.6559 0.7447
vn -0.5355 0.8433 0.0447
vn -0.3992 0.4879 0.7763
vn -0.7732 0.6286 -0.0836
vn -0.8335 0.5256 -0.1705
vn -0.8489 0.4516 -0.2746
vn 0.1279 -0.8017 0.5838
vn -0.0255 -0.9689 -0.2461
vn 0.1258 -0.9638 -0.2352
vn 0.1691 -0.6359 0.7530
vn 0.4501 -0.8929 0.0157
vn 0.4613 -0.4857 0.7425
vn 0.8816 -0.4264 -0.2023
vn 0.6308 -0.5182 0.5775
vn 0.7845 -0.5770 -0.2272
vn 0.7044 -0.6774 -0.2121
vn 0.6868 -0.4458 0.5741
vn 0.5787 -0.7970 -0.1731
vn -0.1198 0.9187 -0.3764
vn -0.3084 0.8003 0.5141
vn -0.7410 0.5619 -0.3676
vn -0.7470 0.6463 -0.1556
vn -0.1478 0.7229 0.6750
vn -0.4977 0.5448 0.6749
vn 0.1575 -0.9816 -0.1079
vn 0.1488 -0.6882 0.7101
vn 0.7699 -0.6136 -0.1751
vn 0.7619 -0.5016 -0.4099
vn 0.3020 -0.8223 0.4823
vn 0.5446 -0.6673 0.5080
vn 0.1557 -0.6858 0.7110
vn -0.0794 -0.9768 -0.1989
vn 0.0459 -0.9769 -0.2089
vn 0.1985 -0.6072 0.7693
vn 0.1296 -0.9825 -0.1337
vn 0.2099 -0.7366 0.6430
vn 0.6229 -0.7413 -0.2500
vn 0.2795 -0.8206 0.4984
vn 0.5034 -0.8153 -0.2860
vn 0.8433 -0.5327 0.0718
vn 0.6189 -0.1399 0.7729
vn 0.4052 -0.4855 0.7747
vn 0.8689 0.1050 0.4837
vn 0.9252 -0.2966 -0.2367
vn 0.9449 -0.1553 -0.2882
vn 0.7221 0.1384 0.6778
vn 0.9408 0.3265 -0.0908
vn 0.6052 0.4392 0.6640
vn 0.9741 0.2257 0.0100
vn 0.9226 0.3856 -0.0073
vn 0.5350 0.5084 0.6747
vn 0.5216 0.8118 -0.2624
vn 0.5165 0.6548 0.5517
vn 0.6291 0.7240 -0.2830
vn 0.2754 0.6125 0.7410
vn 0.2305 0.9729 -0.0188
vn -0.0899 0.7096 0.6988
vn -0.0187 0.9808 -0.1940
vn -0.2525 0.8008 0.5431
vn 0.1247 0.9739 -0.1898
vn -0.7038 0.7090 -0.0453
vn -0.5905 0.3750 0.7147
vn -0.3379 0.6291 0.7001
vn -0.6751 0.7292 -0.1117
vn -0.2769 0.7236 0.6323
vn -0.5783 0.8035 -0.1411
vn -0.8809 0.4136 -0.2301
vn -0.8365 0.1372 0.5304
vn -0.8251 0.5252 -0.2080
vn 0.0816 0.6155 0.7839
vn 0.2883 0.5678 -0.7710
vn 0.3048 0.5168 0.8000
vn 0.2461 0.5099 0.8243
vn 0.2350 0.6244 -0.7450
vn 0.4395 0.5204 -0.7322
vn 0.4395 -0.5204 0.7322
vn 0.2461 -0.5099 -0.8243
vn 0.2350 -0.6244 0.7449
vn 0.2883 -0.5678 0.7710
vn 0.3048 -0.5168 -0.8000
vn 0.0816 -0.6155 -0.7839
vn -0.6144 0.3585 0.7028
vn -0.6318 -0.2473 -0.7346
vn -0.6512 -0.0021 -0.7589
vn -0.6512 0.0021 0.7589
vn -0.6144 -0.3585 -0.7028
vn -0.6318 0.2473 0.7346
vn -0.5615 0.5641 -0.6054
vn -0.8930 0.4140 0.1767
vn -0.8247 0.5321 0.1914
vn 0.0876 0.9777 0.1909
vn -0.1430 0.8003 -0.5823
vn -0.0883 0.9717 0.2189
vn -0.1379 0.8088 -0.5718
vn -0.4957 0.8486 0.1850
vn -0.3316 0.9219 0.2003
vn -0.4412 0.5700 -0.6932
vn -0.5655 0.8204 0.0843
vn -0.2183 0.7136 -0.6656
vn -0.7732 0.6268 0.0964
vn -0.5220 0.4619 -0.7170
vn -0.1495 0.9751 0.1640
vn -0.0535 0.9106 0.4098
vn -0.5612 0.6726 -0.4823
vn -0.3056 0.8053 -0.5080
vn 0.7678 -0.6247 0.1424
vn 0.5435 -0.4775 -0.6904
vn 0.1454 -0.9794 0.1403
vn 0.1413 -0.9799 0.1411
vn 0.5262 -0.5073 -0.6825
vn 0.1809 -0.7089 -0.6817
vn -0.0819 -0.9671 0.2410
vn -0.3827 -0.7833 -0.4899
vn 0.0431 -0.9798 0.1950
vn 0.3533 -0.5207 -0.7772
vn 0.2731 -0.9589 -0.0765
vn -0.0351 -0.6241 -0.7806
vn 0.5623 -0.6615 -0.4962
vn 0.6955 -0.6456 0.3156
vn 0.5801 -0.7470 0.3247
vn 0.9456 -0.3202 0.0578
vn 0.6214 -0.3683 -0.6915
vn 0.7193 -0.0210 -0.6944
vn 0.9568 -0.2225 0.1871
vn 0.8084 0.0640 -0.5852
vn 0.9774 -0.0861 0.1932
vn 0.4558 0.5305 -0.7147
vn 0.7506 0.6597 0.0366
vn 0.6730 0.2620 -0.6917
vn 0.7911 0.1959 -0.5794
vn 0.7771 0.6132 0.1418
vn 0.8749 0.4505 0.1775
vn 0.5034 0.6963 -0.5116
vn 0.1722 0.9645 0.2001
vn 0.3122 0.9175 0.2463
vn -0.0405 0.9940 -0.1012
vn 0.1977 0.5838 -0.7875
vn -0.2228 0.5708 -0.7903
vn -0.5264 0.6858 -0.5025
vn -0.4989 0.8148 0.2952
vn -0.3621 0.8888 0.2808
vn -0.5763 0.3887 -0.7189
vn -0.9185 0.3375 0.2061
vn -0.8690 0.4563 0.1913
vn -0.3505 0.4114 -0.8414
vn -0.8007 0.5989 0.0180
vn -0.4332 0.5504 -0.7137
vn -0.2388 -0.8845 -0.4008
vn 0.4066 -0.7926 -0.4543
vn 0.5075 -0.6597 0.5543
vn 0.5716 -0.7313 0.3722
vn 0.3491 -0.7728 -0.5301
vn 0.3814 -0.7926 0.4757
vn -0.6350 -0.3191 -0.7036
vn -0.5412 0.6994 -0.4668
vn -0.1689 0.0462 -0.9846
vn -0.4326 -0.6019 -0.6712
vn 0.1059 -0.3620 -0.9262
vn -0.3096 -0.7668 -0.5623
vn -0.3331 -0.7586 -0.5599
vn 0.0703 -0.3824 -0.9213
vn 0.1027 -0.4424 -0.8909
vn -0.0226 -0.2031 -0.9789
vn 0.3439 -0.8299 -0.4392
vn -0.5818 -0.4154 -0.6993
vn -0.2854 0.3381 -0.8968
vn -0.7437 -0.0620 -0.6656
vn -0.8240 0.1273 -0.5522
vn -0.3036 0.2399 -0.9221
vn -0.8207 0.0665 -0.5674
vn -0.3353 0.2935 -0.8952
vn -0.3988 0.8114 0.4273
vn -0.5087 0.7115 -0.4847
vn -0.4780 0.6685 -0.5697
vn -0.2978 0.8116 0.5027
vn -0.4627 0.7336 -0.4977
vn -0.8808 0.2260 -0.4161
vn -0.2062 -0.9440 -0.2577
vn -0.1995 -0.9546 0.2212
vn -0.9636 0.1529 -0.2194
vn -0.8998 0.0598 -0.4322
vn -0.3072 -0.8193 0.4841
vn -0.4782 -0.5390 0.6934
vn -0.9639 0.1546 -0.2169
vn -0.9821 0.1845 0.0381
vn -0.2130 -0.9329 -0.2902
vn -0.3277 -0.7835 -0.5279
vn -0.8690 0.0065 0.4947
vn -0.4908 -0.5174 -0.7010
vn 0.9545 -0.2977 -0.0184
vn 0.3002 0.8469 0.4390
vn 0.9602 -0.2790 -0.0110
vn 0.6387 -0.3496 -0.6855
vn 0.3475 -0.6352 -0.6897
vn -0.4888 0.4177 -0.7659
vn 0.4800 -0.3864 -0.7876
vn -0.1462 0.5984 -0.7877
vn 0.1208 -0.6074 -0.7851
vn 0.1210 -0.6072 -0.7853
vn -0.0890 0.6097 -0.7876
vn -0.4445 0.4325 -0.7844
vn 0.0248 -0.7313 -0.6816
vn -0.4760 0.3976 -0.7844
vn 0.3192 -0.6568 -0.6832
vn 0.4832 -0.3822 -0.7877
vn -0.6201 -0.1491 -0.7702
vn -0.4741 -0.4265 -0.7702
vn 0.4224 -0.4485 -0.7876
vn -0.4497 -0.4525 -0.7701
vn -0.1126 0.7203 -0.6845
vn -0.4735 0.7397 -0.4783
vn 0.6676 0.0157 -0.7444
vn 0.4832 -0.7537 -0.4455
vn 0.7079 0.1799 -0.6830
vn -0.6347 0.0622 -0.7703
vn -0.5970 -0.2242 -0.7703
vn 0.1105 -0.6281 -0.7703
vn 0.3719 -0.5181 -0.7703
vn -0.3594 0.6376 -0.6814
vn 0.6476 -0.2356 -0.7246
vn 0.6777 0.1102 -0.7271
vn 0.4428 -0.7911 -0.4221
vn 0.4624 -0.7508 -0.4716
vn 0.2253 0.6180 -0.7532
vn 0.4402 -0.6994 -0.5630
vn -0.6373 -0.0246 -0.7702
vn 0.7301 0.0497 -0.6816
vn 0.6369 -0.3597 -0.6819
vn 0.0114 0.6379 -0.7701
vn 0.4828 -0.5478 -0.6832
vn 0.3533 0.5312 -0.7700
vn 0.1753 0.6133 -0.7701
vn 0.4309 -0.5895 -0.6832
vn -0.5246 0.3309 -0.7844
vn -0.4569 0.5727 -0.6806
vn 0.4031 -0.4942 -0.7703
vn -0.3931 0.4797 -0.7844
vn -0.4058 0.8111 -0.4213
vn -0.4710 0.7034 -0.5324
vn 0.6031 -0.2114 -0.7691
vn -0.2763 0.5863 -0.7615
vn 0.2196 -0.6798 -0.6998
vn 0.0123 0.6481 -0.7614
vn -0.5749 -0.2762 -0.7702
vn 0.4493 0.5758 -0.6831
vn 0.6850 0.2583 -0.6813
vn 0.1175 -0.6268 -0.7702
vn -0.2604 0.6826 -0.6828
vn 0.1563 0.7148 -0.6816
vn -0.2355 0.6900 -0.6844
vn 0.3144 -0.5548 -0.7703
vn -0.5200 0.5042 -0.6895
vn 0.5010 -0.7571 0.4194
vn 0.3662 -0.7743 0.5161
vn 0.1239 0.6247 0.7710
vn -0.4092 0.6048 0.6832
vn -0.6209 0.3871 0.6816
vn 0.1063 -0.6110 0.7844
vn 0.1524 -0.6012 0.7844
vn -0.4654 0.4084 0.7852
vn 0.4835 -0.3820 0.7876
vn 0.4668 -0.4022 0.7876
vn -0.4500 0.4253 0.7853
vn -0.0992 0.6080 0.7877
vn 0.2863 -0.5456 0.7876
vn -0.0815 0.7243 0.6847
vn -0.4944 -0.4039 0.7697
vn -0.4890 0.5342 0.6896
vn 0.2384 -0.5915 0.7702
vn -0.1785 0.7069 0.6845
vn 0.0064 0.7289 0.6846
vn -0.2571 -0.5839 0.7700
vn -0.4741 -0.4270 0.7700
vn 0.5657 -0.2936 0.7706
vn -0.4007 0.7253 0.5598
vn 0.6373 0.0006 0.7706
vn 0.6555 -0.0508 0.7535
vn -0.4020 0.7309 0.5515
vn -0.3820 0.8070 0.4504
vn 0.5786 0.3331 0.7445
vn -0.3995 0.7987 0.4500
vn 0.4499 -0.7584 0.4716
vn 0.1276 0.6640 0.7368
vn 0.4238 -0.7503 0.5074
vn -0.2007 0.6486 0.7342
vn 0.1494 -0.6201 0.7702
vn -0.2135 0.7001 0.6814
vn 0.4015 -0.4956 0.7702
vn 0.6270 -0.1210 0.7695
vn -0.2651 0.6802 0.6835
vn 0.0800 -0.6151 0.7844
vn -0.2252 -0.5967 0.7702
vn 0.3658 0.6338 0.6816
vn -0.0461 0.7300 0.6819
vn -0.2737 0.5757 0.7705
vn 0.1667 -0.7051 0.6892
vn 0.4518 -0.5723 0.6843
vn -0.5777 -0.2701 0.7703
vn 0.7277 0.0617 0.6831
vn 0.5927 0.4297 0.6812
vn 0.2139 -0.7007 0.6806
vn -0.0873 0.6317 0.7703
vn 0.1841 -0.5922 0.7844
vn 0.1304 -0.6063 0.7845
vn 0.0911 0.6312 0.7703
vn 0.3550 0.5298 0.7703
vn -0.5538 0.3163 0.7702
vn 0.4936 -0.5387 0.6828
vn 0.7118 -0.1696 0.6816
vn -0.6147 0.1702 0.7702
vn 0.7307 -0.0376 0.6816
vn -0.6271 -0.1165 0.7702
vn -0.0542 0.6421 0.7647
vn -0.0063 0.0078 0.9999
vn -0.0073 0.0075 0.9999
vn -0.4444 0.5203 0.7292
vn -0.0111 0.0061 0.9999
vn -0.4502 0.5217 0.7247
vn -0.0109 0.0241 0.9996
vn -0.0103 0.0250 0.9996
vn 0.6100 0.1756 0.7727
vn 0.5379 0.3447 0.7694
vn 0.6200 0.1636 0.7673
vn -0.0590 -0.0427 0.9973
vn -0.6202 -0.0952 0.7787
vn 0.1307 0.0197 0.9912
vn -0.5504 -0.3043 0.7774
vn -0.6046 0.1742 0.7773
vn 0.1238 -0.0371 0.9916
vn 0.1316 0.0119 0.9912
vn -0.0295 -0.0805 0.9963
vn 0.5016 0.4031 0.7654
vn -0.0571 -0.0485 0.9972
vn -0.4379 -0.4864 0.7560
vn 0.1107 0.0229 0.9936
vn 0.0409 0.0737 0.9964
vn -0.1195 0.6559 0.7453
vn 0.0122 -0.1198 0.9927
vn 0.0740 -0.1012 0.9921
vn 0.6046 0.1713 0.7779
vn -0.1166 0.0449 0.9922
vn -0.1002 -0.0068 0.9949
vn -0.1102 0.0516 0.9926
vn 0.3923 -0.5268 0.7540
vn 0.2228 -0.6247 0.7484
vn -0.0914 0.0171 0.9957
vn 0.2475 -0.6627 0.7068
vn -0.0512 0.0512 0.9974
vn 0.0727 -0.6619 0.7460
vn -0.0193 0.1220 0.9923
vn -0.0541 0.1108 0.9924
vn -0.3940 0.5202 0.7577
vn 0.0990 -0.0978 0.9903
vn 0.1150 -0.0695 0.9909
vn -0.2950 0.5997 0.7439
vn 0.1174 -0.0143 0.9930
vn -0.4825 0.4538 0.7492
vn -0.6120 -0.1660 0.7733
vn 0.0100 -0.0155 0.9998
vn 0.5438 0.3976 0.7391
vn 0.3570 -0.5480 0.7565
vn -0.0490 0.1173 0.9919
vn 0.4563 -0.4757 0.7520
vn -0.5230 0.4020 0.7516
vn 0.0567 -0.1033 0.9930
vn 0.0992 -0.0824 0.9917
vn -0.6168 -0.2704 0.7392
vn 0.5566 0.3801 0.7387
vn -0.5366 -0.4124 0.7362
vn -0.5464 -0.3935 0.7393
vn 0.5471 0.3986 0.7361
vn 0.6273 0.2565 0.7354
vn -0.5596 0.5141 -0.6501
vn -0.2429 0.4444 -0.8622
vn -0.3680 0.2560 -0.8939
vn -0.8334 0.5265 -0.1681
vn -0.7757 0.3552 -0.5216
vn -0.9244 0.3262 -0.1974
vn 0.0564 -0.0172 -0.9983
vn 0.0278 -0.0693 -0.9972
vn -0.1754 0.1375 -0.9748
vn 0.0132 0.0998 -0.9949
vn 0.0278 0.1605 -0.9867
vn 0.2595 0.3312 -0.9072
vn -0.1931 0.1726 -0.9659
vn -0.0295 0.0878 -0.9957
vn -0.0741 0.2444 -0.9668
vn -0.1952 0.6686 -0.7175
vn 0.0672 0.4451 -0.8930
vn -0.1421 0.3372 -0.9306
vn 0.4901 -0.2630 -0.8311
vn 0.1280 -0.2161 -0.9680
vn 0.1852 -0.0583 -0.9810
vn 0.4509 0.4172 -0.7891
vn 0.2956 0.1017 -0.9499
vn 0.1579 0.2155 -0.9636
vn 0.2887 -0.1042 -0.9517
vn 0.2148 -0.0344 -0.9761
vn 0.1647 -0.0259 -0.9860
vn -0.0292 -0.9864 -0.1615
vn -0.0847 -0.8477 -0.5237
vn 0.1969 -0.9438 -0.2653
vn 0.2786 -0.3391 -0.8985
vn 0.1292 -0.6565 -0.7432
vn 0.0406 -0.6368 -0.7699
vn 0.0712 -0.0821 -0.9941
vn 0.0509 -0.2783 -0.9592
vn 0.1744 -0.1806 -0.9680
vn -0.5839 0.1433 0.7991
vn -0.5797 0.2036 0.7890
vn -0.7075 0.1598 0.6884
vn 0.0571 0.2989 0.9526
vn 0.0783 0.2004 0.9766
vn 0.0590 0.1533 0.9864
vn -0.4713 0.5333 0.7025
vn -0.4005 0.2083 0.8923
vn -0.2047 0.3182 0.9257
vn -0.5170 0.7953 0.3164
vn -0.2917 0.7043 0.6472
vn -0.3198 0.8915 0.3209
vn 0.1073 0.8992 0.4243
vn 0.1277 0.6777 0.7242
vn 0.2998 0.6538 0.6947
vn 0.3446 0.4214 0.8389
vn 0.0352 0.2224 0.9743
vn 0.1523 0.1070 0.9825
vn 0.3465 -0.4386 0.8292
vn -0.0271 -0.3402 0.9400
vn 0.2918 -0.5095 0.8095
vn -0.0341 0.0983 0.9946
vn -0.2143 0.1786 0.9603
vn -0.0680 0.2369 0.9691
vn -0.7662 0.1288 -0.6296
vn -0.7248 -0.0120 -0.6888
vn -0.7133 0.1900 -0.6747
vn -0.2272 -0.7708 -0.5952
vn -0.4023 -0.6556 -0.6390
vn -0.5083 -0.6735 -0.5367
vn -0.2659 -0.6290 0.7305
vn -0.3391 -0.4609 0.8201
vn -0.1795 -0.5562 0.8114
vn 0.3058 0.9325 0.1923
vn 0.9327 -0.2502 -0.2599
vn 0.2601 0.9379 0.2294
vn 0.8472 -0.5060 0.1616
vn 0.0725 0.9901 0.1206
vn 0.6472 0.3586 0.6727
vn 0.8708 -0.4831 0.0915
vn 0.7025 0.3419 0.6242
vn 0.6621 0.4277 0.6154
vn -0.0185 0.9852 -0.1707
vn 0.8949 -0.4299 -0.1199
vn 0.6296 0.3767 -0.6794
vn 0.6474 0.4372 -0.6243
vn 0.7020 0.3588 -0.6152
vn 0.0140 0.9951 -0.0975
vn 0.9613 -0.1960 -0.1936
vn 0.2441 0.9345 0.2591
vn 0.9440 -0.2387 -0.2280
vn 0.9304 -0.2650 0.2534
vn -0.1162 -0.8795 0.4615
vn 0.0135 -0.7851 0.6192
vn 0.8610 -0.1575 0.4837
vn 0.2440 -0.4528 0.8576
vn -0.3174 -0.9195 0.2319
vn 0.3808 0.1043 0.9187
vn -0.2690 -0.8169 0.5102
vn 0.4430 -0.6373 0.6306
vn -0.7546 -0.6519 -0.0741
vn -0.5359 -0.2762 0.7978
vn -0.5601 -0.2308 0.7956
vn -0.6805 -0.6661 0.3054
vn -0.4683 -0.0546 0.8819
vn -0.5171 -0.7853 0.3403
vn 0.2398 0.2547 0.9368
vn -0.2608 0.7679 0.5850
vn -0.8074 -0.0591 0.5870
vn 0.0466 0.7977 0.6013
vn -0.1361 0.6764 0.7239
vn -0.9760 0.1739 0.1309
vn -0.9578 0.1554 0.2416
vn -0.2845 0.5608 0.7775
vn 0.2572 0.8568 0.4468
vn -0.9385 0.2160 -0.2694
vn 0.1666 0.9760 0.1406
vn -0.9745 0.2128 -0.0714
vn -0.9709 0.2173 -0.1003
vn 0.1907 0.9809 -0.0372
vn 0.2032 0.9767 -0.0697
vn -0.0263 0.6515 -0.7582
vn 0.1358 0.7599 -0.6356
vn -0.9619 0.2678 -0.0554
vn -0.9099 0.3752 -0.1767
vn 0.4261 0.8906 -0.1590
vn -0.9198 0.3883 -0.0565
vn 0.2953 0.8245 -0.4827
vn -0.2540 0.4399 -0.8614
vn -0.9519 0.1753 -0.2512
vn 0.2808 0.2777 -0.9187
vn -0.8419 0.1755 -0.5103
vn -0.3304 0.7022 -0.6306
vn -0.9419 -0.3276 0.0738
vn -0.5069 -0.3258 -0.7981
vn -0.4797 -0.3694 -0.7959
vn -0.9169 -0.2564 -0.3058
vn -0.2812 -0.3779 -0.8821
vn -0.9386 -0.0552 -0.3406
vn 0.3403 0.0805 -0.9369
vn 0.5345 -0.6097 -0.5852
vn -0.4550 -0.6696 -0.5871
vn 0.6934 -0.3136 0.6488
vn 0.8288 -0.2454 0.5029
vn -0.2042 -0.9786 -0.0265
vn -0.1500 -0.9757 0.1599
vn 0.9713 -0.1014 0.2153
vn -0.1406 -0.9896 0.0302
vn -0.3027 -0.9516 -0.0537
vn 0.3476 -0.5310 -0.7728
vn 0.2597 -0.5738 -0.7768
vn -0.3360 -0.9230 -0.1874
vn 0.3652 -0.5404 -0.7580
vn 0.8985 -0.2253 -0.3768
vn -0.3441 -0.9383 0.0349
vn 0.9267 -0.3733 0.0433
vn 0.9273 -0.3605 0.1009
vn -0.5946 0.6335 -0.4951
vn -0.8033 0.2853 0.5228
vn -0.1431 0.9411 -0.3064
vn -0.8389 0.2930 -0.4586
vn -0.5508 0.6468 0.5275
vn -0.1247 0.9454 0.3011
vn -0.0093 0.9587 0.2841
vn -0.4757 0.6207 0.6233
vn -0.6701 0.5087 0.5405
vn -0.8934 0.3795 0.2404
vn 0.2035 0.9713 0.1234
vn 0.1669 0.9769 0.1331
vn 0.0051 0.9550 -0.2967
vn -0.6449 0.5168 -0.5631
vn -0.4517 0.6286 -0.6331
vn -0.9568 0.1374 0.2561
vn -0.0921 0.9553 -0.2809
vn -0.9634 0.1428 -0.2268
vn -0.9239 0.2178 -0.3147
vn 0.0340 0.9986 -0.0416
vn -0.0179 0.9650 0.2615
vn -0.1437 -0.9071 0.3956
vn 0.3630 -0.8664 -0.3428
vn 0.7408 -0.5487 -0.3875
vn 0.7042 -0.6912 -0.1624
vn -0.1985 -0.9448 0.2606
vn 0.7436 -0.6686 -0.0005
vn 0.7345 -0.6782 -0.0228
vn -0.2205 -0.9494 0.2237
vn -0.2291 -0.9527 -0.1998
vn 0.4395 -0.8315 -0.3398
vn 0.3052 -0.9004 -0.3100
vn 0.7888 -0.5318 -0.3083
vn 0.7335 -0.5393 0.4137
vn 0.3821 -0.8495 0.3638
vn -0.1769 -0.9208 -0.3475
vn -0.0808 -0.8721 -0.4826
vn 0.4244 -0.8467 0.3210
vn 0.5425 -0.7828 0.3048
vn 0.1620 -0.9713 0.1741
vn 0.9129 -0.3932 0.1095
vn 0.1166 -0.9929 0.0219
vn 0.1463 -0.9838 -0.1036
vn 0.9271 -0.3577 -0.1121
vn 0.9066 -0.3946 -0.1495
vn 0.4607 0.6458 0.6089
vn 0.5735 0.4238 0.7010
vn 0.7605 0.2473 0.6004
vn 0.1301 -0.7687 0.6263
vn -0.0450 -0.8568 0.5138
vn 0.4130 -0.6690 0.6179
vn 0.3994 -0.6588 0.6375
vn -0.2221 -0.7888 0.5732
vn 0.4599 -0.7122 0.5304
vn 0.3617 0.5840 0.7267
vn -0.1371 0.7797 0.6109
vn 0.1207 0.6753 0.7276
vn -0.5815 0.5916 0.5584
vn -0.2908 0.8466 0.4458
vn -0.8289 0.1229 0.5457
vn -0.7402 0.1255 0.6606
vn -0.8431 -0.0544 0.5350
vn -0.7420 -0.0997 0.6630
vn -0.8405 -0.2963 0.4537
vn -0.8094 0.3627 0.4619
vn -0.4210 -0.8089 0.4105
vn -0.6740 -0.4378 0.5950
vn -0.6737 -0.2325 0.7014
vn -0.7881 -0.0768 0.6107
vn 0.2354 0.7089 0.6649
vn 0.0567 0.8405 0.5389
vn -0.0132 0.7453 0.6666
vn -0.5202 0.6598 0.5422
vn 0.1687 0.8538 0.4925
vn -0.6424 0.6293 0.4375
vn -0.6811 0.0663 0.7291
vn -0.4558 0.5989 0.6585
vn -0.6577 -0.1956 0.7275
vn 0.6457 -0.5144 0.5644
vn 0.3768 -0.8184 0.4338
vn 0.8160 -0.0040 0.5781
vn 0.6628 -0.3397 0.6673
vn 0.8046 0.1449 0.5759
vn 0.7216 -0.1585 0.6740
vn 0.8022 0.4490 0.3935
vn 0.8798 -0.2442 0.4077
vn 0.2504 0.8764 0.4114
vn -0.4939 -0.6045 -0.6250
vn -0.0301 -0.7613 -0.6476
vn 0.2206 -0.7442 -0.6304
vn -0.4491 -0.6498 -0.6132
vn 0.0417 -0.7703 -0.6363
vn 0.4369 -0.7380 -0.5143
vn 0.6988 0.0868 -0.7100
vn 0.5213 0.5997 -0.6071
vn 0.7764 0.1682 -0.6074
vn -0.8501 -0.4527 -0.2691
vn -0.4822 -0.7736 -0.4111
vn -0.9776 -0.1002 -0.1853
vn -0.6384 -0.4425 -0.6298
vn -0.3456 -0.7589 -0.5519
vn -0.8550 -0.1510 -0.4962
vn -0.2555 0.8137 -0.5222
vn -0.7999 0.4012 -0.4462
vn -0.2078 0.8871 -0.4122
vn 0.1707 0.6659 -0.7262
vn -0.2958 0.7031 -0.6467
vn 0.4060 0.5554 -0.7257
vn -0.8590 -0.1100 -0.5001
vn -0.7644 -0.4476 -0.4641
vn -0.8410 0.2492 -0.4803
vn -0.6871 -0.0843 -0.7217
vn -0.5891 -0.5190 -0.6193
vn -0.7001 -0.3575 -0.6181
vn 0.6795 0.4020 -0.6137
vn 0.8075 -0.2167 -0.5486
vn 0.7678 0.1149 -0.6303
vn 0.4983 -0.8113 -0.3058
vn 0.7975 -0.4106 -0.4420
vn 0.1377 -0.9583 -0.2504
vn 0.3245 -0.7021 -0.6338
vn 0.7696 -0.2826 -0.5726
vn 0.3697 -0.7664 -0.5253
vn -0.2568 0.8522 -0.4558
vn -0.6224 0.7060 -0.3380
vn 0.2931 0.8246 -0.4839
vn 0.7632 0.1851 -0.6191
vn 0.6467 0.5938 -0.4787
vn 0.7996 -0.2385 -0.5512
vn -0.4775 0.5828 -0.6575
vn -0.8450 0.1339 -0.5177
vn -0.4254 0.6037 0.6742
vn -0.4728 0.5389 0.6971
vn -0.8726 0.1249 -0.4722
vn -0.8143 0.1410 0.5631
vn 0.2593 -0.7000 0.6654
vn -0.3033 -0.7997 0.5181
vn 0.2390 -0.7069 -0.6657
vn 0.2800 -0.6646 -0.6927
vn -0.2957 -0.8074 0.5105
vn -0.3451 -0.7530 -0.5603
vn -0.4766 0.5745 -0.6654
vn -0.8443 0.1372 -0.5181
vn -0.4927 0.5604 0.6657
vn -0.4355 0.5748 0.6927
vn -0.8471 0.1476 -0.5105
vn -0.8246 0.0777 0.5604
vn 0.2661 -0.7050 0.6574
vn -0.3065 -0.7988 0.5176
vn 0.3102 -0.6702 -0.6743
vn 0.2302 -0.6789 -0.6972
vn -0.3281 -0.8182 0.4720
vn -0.2851 -0.7756 -0.5632
vn -0.9689 0.1615 -0.1877
vn -0.4524 -0.7663 0.4562
vn -0.5405 -0.8408 0.0295
vn -0.9930 0.1015 -0.0611
vn -0.4357 -0.8926 0.1161
vn -0.9711 0.0837 -0.2236
vn -0.4101 0.5047 -0.7597
vn -0.2029 -0.5308 -0.8228
vn 0.1782 -0.3300 -0.9270
vn 0.0562 0.6082 -0.7918
vn 0.8933 -0.1195 -0.4332
vn 0.1975 0.7196 -0.6657
vn 0.9927 0.1200 -0.0086
vn 0.2136 0.9768 0.0143
vn 0.8987 0.0639 -0.4339
vn 0.1984 -0.3809 0.9031
vn -0.0447 0.6323 0.7734
vn 0.5853 -0.1952 0.7870
vn 0.3642 -0.3443 0.8653
vn -0.0153 0.6258 0.7799
vn 0.1605 0.7233 0.6716
vn -0.5408 -0.1769 0.8223
vn -0.6573 -0.4036 -0.6365
vn -0.7391 -0.2225 -0.6358
vn -0.4235 -0.3800 -0.8223
vn -0.6781 -0.3676 0.6364
vn -0.5621 -0.5290 0.6358
vn -0.6762 0.3216 0.6628
vn -0.1854 0.0077 0.9826
vn -0.4063 0.7005 0.5866
vn 0.3225 0.9254 0.1992
vn 0.8148 0.4386 0.3791
vn 0.8696 0.4753 -0.1341
vn 0.3426 0.8125 0.4716
vn 0.8492 0.5076 0.1457
vn 0.1710 0.9803 0.0986
vn -0.3086 0.6482 -0.6961
vn 0.0679 0.2031 -0.9768
vn -0.6781 0.3246 -0.6594
vn -0.6853 0.1415 -0.7144
vn -0.0174 -0.2502 -0.9680
vn -0.4288 -0.4862 -0.7614
vn -0.8451 0.4240 -0.3257
vn -0.9647 -0.1897 -0.1827
vn -0.8230 0.5332 0.1957
vn -0.5546 0.2799 0.7836
vn -0.4853 -0.4827 0.7290
vn -0.0866 -0.2515 0.9640
s 0
f 1//1 3//2 4//3
f 9//4 77//5 5//6
f 6//7 8//8 7//9
f 9//10 79//11 77//12
f 8//13 6//14 80//15
f 80//16 79//17 8//18
f 8//19 79//20 9//21
f 63//22 10//23 5//24
f 10//25 63//26 12//27
f 12//28 63//29 61//30
f 12//31 61//32 7//33
f 13//34 11//35 60//36
f 6//37 14//38 59//39
f 59//40 14//41 58//42
f 58//43 14//44 15//45
f 58//46 15//47 16//48
f 16//49 15//50 13//51
f 13//52 60//53 16//54
f 78//55 18//56 81//57
f 81//58 18//59 64//60
f 64//61 18//62 19//63
f 64//64 19//65 20//66
f 64//67 20//68 21//69
f 21//70 20//71 54//72
f 54//73 20//74 17//75
f 54//76 17//77 77//78
f 9//79 5//80 10//81
f 24//82 22//83 41//84
f 41//85 22//86 23//87
f 41//88 23//89 9//90
f 8//91 24//92 42//93
f 42//94 24//95 41//96
f 9//97 23//98 8//99
f 8//100 23//101 24//102
f 12//103 7//104 8//105
f 27//106 52//107 53//108
f 27//109 25//110 52//111
f 52//112 25//113 12//114
f 12//115 25//116 10//117
f 10//118 25//119 26//120
f 10//121 26//122 50//123
f 50//124 26//125 27//126
f 50//127 27//128 53//129
f 28//130 35//131 30//132
f 28//133 30//134 29//135
f 31//136 32//137 30//138
f 30//139 32//140 33//141
f 30//142 33//143 29//144
f 32//145 31//146 34//147
f 34//148 31//149 35//150
f 34//151 35//152 28//153
f 36//154 28//155 42//156
f 36//157 37//158 28//159
f 37//160 34//161 28//162
f 34//163 37//164 38//165
f 34//166 38//167 32//168
f 32//169 38//170 9//171
f 32//172 9//173 39//174
f 39//175 9//176 10//177
f 39//178 10//179 40//180
f 40//181 10//182 50//183
f 30//184 23//185 31//186
f 31//187 23//188 35//189
f 35//190 23//191 22//192
f 35//193 22//194 30//195
f 30//196 22//197 24//198
f 30//199 24//200 23//201
f 38//202 37//203 41//204
f 41//205 37//206 36//207
f 41//208 36//209 42//210
f 38//211 41//212 9//213
f 43//214 33//215 39//216
f 39//217 33//218 32//219
f 44//220 52//221 45//222
f 45//223 52//224 12//225
f 45//226 12//227 29//228
f 29//229 12//230 8//231
f 29//232 8//233 28//234
f 28//235 8//236 42//237
f 33//238 43//239 29//240
f 29//241 43//242 45//243
f 46//244 39//245 40//246
f 46//247 47//248 39//249
f 39//250 47//251 43//252
f 43//253 47//254 45//255
f 45//256 47//257 48//258
f 45//259 48//260 44//261
f 44//262 48//263 46//264
f 46//265 40//266 49//267
f 46//268 49//269 44//270
f 40//271 50//272 49//273
f 49//274 50//275 51//276
f 51//277 44//278 49//279
f 44//280 51//281 52//282
f 47//283 25//284 48//285
f 48//286 25//287 27//288
f 48//289 27//290 46//291
f 46//292 27//293 26//294
f 46//295 26//296 47//297
f 47//298 26//299 25//300
f 53//301 51//302 50//303
f 52//304 51//305 53//306
f 55//307 21//308 54//309
f 21//310 55//311 56//312
f 56//313 55//314 57//315
f 56//316 57//317 59//318
f 56//319 59//320 58//321
f 61//322 16//323 60//324
f 16//325 61//326 62//327
f 62//328 61//329 63//330
f 62//331 63//332 81//333
f 62//334 81//335 64//336
f 65//337 66//338 58//339
f 16//340 62//341 65//342
f 65//343 62//344 67//345
f 58//346 16//347 65//348
f 66//349 56//350 58//351
f 67//352 62//353 64//354
f 67//355 64//356 21//357
f 67//358 21//359 68//360
f 68//361 56//362 66//363
f 68//364 21//365 56//366
f 67//367 69//368 70//369
f 68//370 73//371 67//372
f 67//373 73//374 69//375
f 71//376 70//377 72//378
f 72//379 70//380 73//381
f 74//382 4//383 2//384
f 74//385 2//386 75//387
f 65//388 2//389 1//390
f 65//391 1//392 66//393
f 75//394 2//395 65//396
f 75//397 65//398 71//399
f 71//400 65//401 67//402
f 71//403 67//404 70//405
f 72//406 73//407 68//408
f 72//409 68//410 74//411
f 74//412 68//413 66//414
f 74//415 66//416 4//417
f 4//418 66//419 1//420
f 75//421 72//422 74//423
f 71//424 72//425 75//426
f 70//427 19//428 73//429
f 73//430 19//431 76//432
f 19//433 70//434 69//435
f 76//436 69//437 73//438
f 77//439 17//440 5//441
f 78//442 5//443 18//444
f 14//445 6//446 7//447
f 13//448 7//449 11//450
f 7//451 13//452 14//453
f 5//454 17//455 18//456
f 20//457 69//458 76//459
f 20//460 76//461 17//462
f 17//463 76//464 18//465
f 18//466 76//467 19//468
f 20//469 19//470 69//471
f 2//472 4//473 13//474
f 13//475 4//476 14//477
f 4//478 3//479 14//480
f 3//481 1//482 14//483
f 14//484 1//485 15//486
f 1//487 2//488 15//489
f 15//490 2//491 13//492
f 54//493 79//494 55//495
f 57//496 80//497 59//498
f 59//499 80//500 6//501
f 55//502 79//503 57//504
f 54//505 77//506 79//507
f 57//508 79//509 80//510
f 5//511 78//512 81//513
f 60//514 7//515 61//516
f 81//517 63//518 5//519
f 11//520 7//521 60//522
f 85//523 93//524 88//525
f 85//526 88//527 82//528
f 82//529 88//530 89//531
f 82//532 89//533 91//534
f 82//535 91//536 83//537
f 83//538 91//539 84//540
f 84//541 91//542 92//543
f 84//544 92//545 85//546
f 85//547 92//548 93//549
f 93//550 86//551 87//552
f 93//553 87//554 88//555
f 88//556 87//557 89//558
f 89//559 87//560 90//561
f 89//562 90//563 91//564
f 91//565 90//566 92//567
f 92//568 90//569 86//570
f 92//571 86//572 93//573
f 86//574 90//575 87//576
f 94//577 96//578 95//579
f 96//580 94//581 82//582
f 82//583 94//584 85//585
f 94//586 95//587 85//588
f 85//589 95//590 84//591
f 84//592 95//593 83//594
f 95//595 96//596 83//597
f 83//598 96//599 82//600
f 101//601 100//602 102//603
f 103//604 100//605 101//606
f 104//607 105//608 103//609
f 103//610 105//611 100//612
f 98//613 99//614 104//615
f 104//616 99//617 105//618
f 102//619 100//620 106//621
f 102//622 106//623 97//624
f 102//625 97//626 108//627
f 108//628 100//629 107//630
f 108//631 107//632 103//633
f 108//634 103//635 101//636
f 103//637 107//638 98//639
f 98//640 107//641 105//642
f 98//643 105//644 99//645
f 105//646 107//647 100//648
f 100//649 108//650 106//651
f 106//652 108//653 97//654
f 102//655 108//656 101//657
f 104//658 103//659 98//660
f 118//628 116//629 113//630
f 118//631 113//632 114//633
f 118//634 114//635 115//636
f 114//637 113//638 110//639
f 110//640 113//641 117//642
f 110//643 117//644 109//645
f 111//625 112//626 118//627
f 114//604 116//605 115//606
f 115//601 116//602 111//603
f 119//607 117//608 114//609
f 114//610 117//611 116//612
f 110//613 109//614 119//615
f 119//616 109//617 117//618
f 111//619 116//620 120//621
f 111//622 120//623 112//624
f 112//654 120//652 118//653
f 118//650 120//651 116//649
f 113//661 116//648 117//646
f 118//656 115//657 111//655
f 110//660 119//658 114//659
f 121//662 125//663 127//664
f 121//665 127//666 122//667
f 122//668 127//669 129//670
f 122//671 129//672 123//673
f 123//674 129//675 130//676
f 123//677 130//678 125//679
f 123//680 125//681 121//682
f 125//683 124//684 126//685
f 125//686 126//687 127//688
f 127//689 126//690 128//691
f 127//692 128//693 129//694
f 129//695 128//696 124//697
f 129//698 124//699 130//700
f 130//701 124//702 125//703
f 128//704 126//705 124//706
f 121//707 132//708 123//709
f 122//710 131//711 121//712
f 121//713 131//714 132//715
f 133//716 134//717 135//718
f 122//719 134//720 131//721
f 131//722 134//723 133//724
f 131//725 133//726 132//727
f 132//728 133//729 135//730
f 132//731 135//732 123//733
f 123//734 135//735 122//736
f 135//737 134//738 122//739
f 142//740 140//741 141//742
f 143//743 144//744 140//745
f 143//746 140//747 142//748
f 138//749 139//750 143//751
f 143//752 139//753 144//754
f 140//755 145//756 141//757
f 141//758 145//759 137//760
f 137//761 145//762 136//763
f 140//764 146//765 147//766
f 147//767 146//768 142//769
f 141//770 148//771 147//772
f 137//773 136//774 148//775
f 137//776 148//777 141//778
f 141//779 147//780 142//781
f 146//782 140//783 144//784
f 146//785 144//786 138//787
f 138//788 144//789 139//790
f 140//791 147//792 148//793
f 140//794 148//795 145//796
f 145//797 148//798 136//799
f 142//800 146//801 143//802
f 143//803 146//804 138//805
f 153//767 154//768 159//769
f 154//806 153//766 158//764
f 155//779 153//780 159//781
f 155//770 157//771 153//772
f 154//782 158//783 156//784
f 154//785 156//786 150//787
f 150//788 156//789 149//790
f 151//773 152//774 157//775
f 151//776 157//777 155//778
f 159//740 158//741 155//742
f 160//743 156//744 158//745
f 160//746 158//747 159//748
f 150//749 149//750 160//751
f 160//752 149//753 156//754
f 158//755 161//756 155//757
f 155//758 161//759 151//760
f 151//761 161//762 152//763
f 157//798 152//799 161//797
f 157//795 161//796 158//807
f 157//793 158//791 153//792
f 150//805 160//803 154//804
f 154//801 160//802 159//800
f 162//808 163//809 164//810
f 165//811 164//812 166//813
f 165//814 166//815 167//816
f 167//817 166//818 168//819
f 167//820 168//821 162//822
f 173//823 174//824 169//825
f 170//826 171//827 172//828
f 173//829 172//830 174//831
f 170//832 166//833 171//834
f 171//835 166//836 164//837
f 171//838 164//839 163//840
f 171//841 163//842 172//843
f 172//844 163//845 174//846
f 174//847 163//848 162//849
f 174//850 162//851 168//852
f 174//853 168//854 169//855
f 169//856 168//857 166//858
f 169//859 166//860 170//861
f 167//862 170//863 165//864
f 165//865 170//866 164//867
f 164//868 170//869 172//870
f 164//871 172//872 173//873
f 164//874 173//875 162//876
f 162//877 173//878 167//879
f 167//880 173//881 169//882
f 167//883 169//884 170//885
f 175//886 177//887 178//888
f 177//889 176//890 178//891
f 176//892 177//893 179//894
f 176//895 179//896 180//897
f 176//898 180//899 181//900
f 175//901 178//902 181//903
f 175//904 181//905 180//906
f 184//907 185//908 183//909
f 183//910 185//911 182//912
f 183//913 186//914 184//915
f 184//916 186//917 187//918
f 192//919 193//920 188//921
f 188//922 193//923 189//924
f 188//925 189//926 190//927
f 190//928 189//929 191//930
f 190//931 191//932 192//933
f 192//934 191//935 193//936
f 236//937 196//938 194//939
f 194//940 239//941 236//942
f 196//943 236//944 232//945
f 194//946 294//947 239//948
f 197//949 198//950 293//951
f 293//952 198//953 196//954
f 293//955 196//956 232//957
f 200//958 201//959 290//960
f 200//961 290//962 194//963
f 194//964 290//965 294//966
f 199//967 291//968 222//969
f 195//970 291//971 199//972
f 229//973 195//974 197//975
f 195//976 292//977 291//978
f 229//979 292//980 195//981
f 199//982 222//983 201//984
f 201//985 200//986 197//987
f 197//988 200//989 198//990
f 202//991 207//992 203//993
f 202//994 203//995 204//996
f 204//997 203//998 205//999
f 204//1000 205//1001 206//1002
f 206//1003 205//1004 207//1005
f 206//1006 207//1007 202//1008
f 184//1009 248//1010 210//1011
f 210//1012 248//1013 211//1014
f 187//1015 209//1016 297//1017
f 187//1018 297//1019 184//1020
f 184//1021 297//1022 248//1023
f 209//1024 296//1025 297//1026
f 296//1027 209//1028 208//1029
f 296//1030 208//1031 212//1032
f 213//1033 218//1034 296//1035
f 213//1036 296//1037 212//1038
f 214//1039 215//1040 216//1041
f 217//1042 296//1043 218//1044
f 217//1045 218//1046 219//1047
f 219//1048 218//1049 220//1050
f 219//1051 220//1052 280//1053
f 288//1054 222//1055 221//1056
f 221//1057 222//1058 223//1059
f 221//1060 223//1061 224//1062
f 224//1063 223//1064 275//1065
f 226//1066 225//1067 227//1068
f 226//1069 227//1070 228//1071
f 295//1072 228//1073 229//1074
f 229//1075 228//1076 227//1077
f 288//1078 221//1079 290//1080
f 290//1081 221//1082 230//1083
f 293//1084 231//1085 295//1086
f 295//1087 231//1088 228//1089
f 231//1090 293//1091 232//1092
f 231//1093 232//1094 233//1095
f 234//1096 233//1097 232//1098
f 234//1099 235//1100 233//1101
f 235//1102 234//1103 236//1104
f 235//1105 236//1106 237//1107
f 236//1108 238//1109 237//1110
f 239//1111 237//1112 238//1113
f 237//1114 239//1115 240//1116
f 241//1117 240//1118 239//1119
f 294//1120 230//1121 240//1122
f 294//1123 240//1124 241//1125
f 290//1126 230//1127 294//1128
f 242//1129 243//1130 244//1131
f 244//1132 243//1133 245//1134
f 244//1135 245//1136 246//1137
f 246//1138 245//1139 247//1140
f 246//1141 247//1142 243//1143
f 246//1144 243//1145 242//1146
f 211//1147 248//1148 249//1149
f 298//1150 250//1151 251//1152
f 250//1153 249//1154 251//1155
f 211//1156 249//1157 250//1158
f 299//1159 252//1160 298//1161
f 298//1162 252//1163 250//1164
f 280//1165 220//1166 253//1167
f 253//1168 220//1169 254//1170
f 253//1171 254//1172 256//1173
f 255//1174 256//1175 254//1176
f 255//1177 257//1178 256//1179
f 257//1180 255//1181 258//1182
f 257//1183 258//1184 259//1185
f 260//1186 261//1187 258//1188
f 258//1189 261//1190 259//1191
f 260//1192 262//1193 261//1194
f 262//1195 260//1196 263//1197
f 263//1198 264//1199 262//1200
f 252//1201 299//1202 264//1203
f 252//1204 264//1205 263//1206
f 265//1129 266//1130 267//1131
f 267//1132 266//1133 268//1134
f 267//1135 268//1136 269//1137
f 269//1138 268//1139 270//1140
f 269//1141 270//1142 266//1143
f 269//1144 266//1145 265//1146
f 271//1207 225//1208 215//1209
f 215//1210 225//1211 226//1212
f 273//1213 272//1214 291//1215
f 273//1216 291//1217 271//1218
f 271//1219 291//1220 225//1221
f 291//1222 272//1223 182//1224
f 291//1225 182//1226 185//1227
f 291//1228 185//1229 275//1230
f 274//1231 224//1232 275//1233
f 274//1234 275//1235 185//1236
f 271//1237 212//1238 276//1239
f 276//1240 212//1241 208//1242
f 276//1243 277//1244 271//1245
f 271//1246 277//1247 273//1248
f 278//1249 210//1250 301//1251
f 220//1252 218//1253 207//1254
f 220//1255 250//1256 254//1257
f 254//1258 250//1259 252//1260
f 254//1261 252//1262 255//1263
f 220//1264 207//1265 205//1266
f 220//1267 205//1268 250//1269
f 210//1270 205//1271 213//1272
f 258//1273 266//1274 270//1275
f 270//1276 268//1277 263//1278
f 205//1279 203//1280 213//1281
f 213//1282 203//1283 218//1284
f 266//1285 258//1286 255//1287
f 266//1288 255//1289 268//1290
f 268//1291 255//1292 252//1293
f 263//1294 268//1295 252//1296
f 210//1297 211//1298 205//1299
f 207//1300 218//1301 203//1302
f 270//1303 260//1304 258//1305
f 270//1306 263//1307 260//1308
f 250//1309 205//1310 211//1311
f 215//1312 226//1313 192//1314
f 240//1315 230//1316 231//1317
f 231//1318 230//1319 228//1320
f 228//1321 230//1322 221//1323
f 228//1324 221//1325 192//1326
f 224//1327 190//1328 221//1329
f 221//1330 190//1331 192//1332
f 190//1333 224//1334 188//1335
f 188//1336 224//1337 274//1338
f 188//1339 274//1340 215//1341
f 188//1342 215//1343 192//1344
f 246//1345 240//1346 244//1347
f 244//1348 240//1349 231//1350
f 246//1351 237//1352 240//1353
f 192//1354 226//1355 228//1356
f 246//1357 235//1358 237//1359
f 233//1360 242//1361 231//1362
f 231//1363 242//1364 244//1365
f 242//1366 233//1367 235//1368
f 242//1369 235//1370 246//1371
f 279//1372 280//1373 253//1374
f 279//1375 253//1376 281//1377
f 299//1378 286//1379 282//1380
f 283//1381 284//1382 297//1383
f 281//1384 259//1385 285//1386
f 281//1387 257//1388 259//1389
f 217//1390 283//1391 297//1392
f 285//1393 259//1394 300//1395
f 281//1396 253//1397 257//1398
f 284//1399 249//1400 297//1401
f 299//1402 282//1403 285//1404
f 299//1405 285//1406 300//1407
f 284//1408 251//1409 249//1410
f 283//1411 219//1412 280//1413
f 283//1414 280//1415 287//1416
f 287//1417 280//1418 279//1419
f 286//1420 251//1421 284//1422
f 283//1423 217//1424 219//1425
f 287//1426 279//1427 286//1428
f 286//1429 279//1430 282//1431
f 223//1432 222//1433 289//1434
f 223//1435 289//1436 275//1437
f 222//1438 291//1439 289//1440
f 201//1441 222//1442 288//1443
f 290//1444 201//1445 288//1446
f 241//1447 239//1448 294//1449
f 234//1450 232//1451 236//1452
f 238//1453 236//1454 239//1455
f 295//1456 229//1457 197//1458
f 225//1459 292//1460 227//1461
f 229//1462 227//1463 292//1464
f 197//1465 293//1466 295//1467
f 297//1468 249//1469 248//1470
f 298//1471 251//1472 286//1473
f 264//1474 299//1475 300//1476
f 264//1477 300//1478 262//1479
f 262//1480 300//1481 261//1482
f 261//1483 300//1484 259//1485
f 257//1486 253//1487 256//1488
f 286//1489 299//1490 298//1491
f 275//1492 289//1493 291//1494
f 291//1495 292//1496 225//1497
f 296//1498 217//1499 297//1500
f 210//1501 278//1502 274//1503
f 215//1504 274//1505 278//1506
f 215//1507 278//1508 216//1509
f 210//1510 213//1511 214//1512
f 214//1513 301//1514 210//1515
f 215//1516 214//1517 213//1518
f 278//1519 181//1520 178//1521
f 278//1522 178//1523 183//1524
f 278//1525 183//1526 302//1527
f 303//1528 216//1529 278//1530
f 303//1531 278//1532 302//1533
f 216//1534 303//1535 277//1536
f 306//1537 304//1538 277//1539
f 277//1540 304//1541 216//1542
f 305//1543 214//1544 304//1545
f 304//1546 214//1547 216//1548
f 305//1549 306//1550 276//1551
f 276//1552 306//1553 277//1554
f 214//1555 305//1556 276//1557
f 214//1558 276//1559 307//1560
f 308//1561 301//1562 214//1563
f 308//1564 214//1565 307//1566
f 301//1567 308//1568 186//1569
f 178//1570 176//1571 183//1572
f 183//1573 176//1574 186//1575
f 186//1576 176//1577 181//1578
f 186//1579 181//1580 301//1581
f 181//1582 278//1583 301//1584
f 310//1585 184//1586 210//1587
f 185//1588 311//1589 274//1590
f 274//1591 311//1592 309//1593
f 309//1594 210//1595 274//1596
f 210//1597 309//1598 310//1599
f 184//1600 310//1601 185//1602
f 185//1603 310//1604 311//1605
f 212//1606 312//1607 213//1608
f 312//1609 212//1610 313//1611
f 313//1612 212//1613 271//1614
f 312//1615 314//1616 213//1617
f 215//1618 315//1619 271//1620
f 271//1621 315//1622 313//1623
f 315//1624 215//1625 314//1626
f 314//1627 215//1628 213//1629
f 279//1630 267//1631 282//1632
f 269//1633 285//1634 267//1635
f 267//1636 285//1637 282//1638
f 267//1639 279//1640 265//1641
f 265//1642 279//1643 281//1644
f 265//1645 281//1646 269//1647
f 269//1648 281//1649 285//1650
f 286//1651 206//1652 287//1653
f 204//1654 283//1655 202//1656
f 202//1657 283//1658 287//1659
f 202//1660 287//1661 206//1662
f 206//1663 286//1664 284//1665
f 206//1666 284//1667 204//1668
f 204//1669 284//1670 283//1671
f 194//1672 247//1673 245//1674
f 194//1675 245//1676 200//1677
f 245//1678 198//1679 200//1680
f 247//1681 194//1682 243//1683
f 243//1684 194//1685 196//1686
f 243//1687 196//1688 198//1689
f 243//1690 198//1691 245//1692
f 191//1693 201//1694 193//1695
f 193//1696 201//1697 197//1698
f 193//1699 199//1700 189//1701
f 189//1702 199//1703 191//1704
f 191//1705 199//1706 201//1707
f 193//1708 197//1709 195//1710
f 193//1711 195//1712 199//1713
f 307//1714 276//1715 209//1716
f 209//1717 276//1718 208//1719
f 209//1720 187//1721 308//1722
f 308//1723 187//1724 186//1725
f 272//1726 273//1727 303//1728
f 303//1729 273//1730 277//1731
f 302//1732 183//1733 272//1734
f 272//1735 183//1736 182//1737
f 304//1738 315//1739 314//1740
f 304//1741 314//1742 305//1743
f 305//1744 314//1745 312//1746
f 305//1747 312//1748 306//1749
f 313//1750 306//1751 312//1752
f 315//1753 304//1754 313//1755
f 313//1756 304//1757 306//1758
f 209//1759 308//1760 307//1761
f 272//1762 303//1763 302//1764
f 175//1765 311//1766 177//1767
f 177//1768 311//1769 310//1770
f 177//1771 310//1772 179//1773
f 179//1774 310//1775 180//1776
f 180//1777 310//1778 309//1779
f 180//1780 309//1781 175//1782
f 175//1783 309//1784 311//1785
