# Blender 4.0.2
# www.blender.org
mtllib Foot.mtl
o Foot
v -0.003124 -0.003212 0.005000
v -0.048488 -0.024014 0.004939
v 0.048526 -0.024000 0.004930
v 0.030345 -0.011155 0.004808
v 0.019107 -0.006378 0.004854
v 0.003293 -0.002681 0.005001
v 0.003611 0.001992 0.005000
v 0.000306 0.004083 0.005000
v 0.003445 0.007210 0.004883
v -0.003187 0.002571 0.005000
v -0.019105 -0.006324 0.004832
v -0.030589 -0.011212 0.004817
v -0.003187 -0.002571 -0.005000
v -0.048813 -0.024196 -0.004848
v 0.000306 -0.004083 -0.005000
v 0.048705 -0.024320 -0.004839
v -0.049428 -0.011478 -0.004463
v -0.030324 -0.011167 -0.004818
v 0.030588 -0.011222 -0.004824
v 0.004102 -0.001226 -0.005000
v 0.019082 -0.006334 -0.004847
v 0.000868 0.004395 -0.005000
v -0.003445 0.007210 -0.004883
v -0.018994 -0.006280 -0.004848
v -0.003926 0.001162 -0.005000
v 0.049012 -0.011050 -0.004457
v -0.049526 -0.024967 -0.003806
v -0.049495 -0.024906 0.003992
v -0.049487 -0.011499 0.004421
v 0.049424 -0.025006 0.003965
v 0.049463 -0.011072 0.004022
v 0.004800 0.007583 -0.003582
v 0.004366 0.007891 0.003631
v 0.020990 -0.006437 -0.003437
v 0.020104 -0.005804 0.003541
v 0.000321 0.008976 -0.004023
v -0.000402 0.008960 0.004054
v -0.004366 0.007891 -0.003631
v -0.004116 0.007574 0.004648
v -0.020104 -0.005804 -0.003541
v -0.020990 -0.006437 0.003437
v 0.030700 -0.010180 0.003436
v 0.031780 -0.010306 -0.003541
v -0.030700 -0.010180 -0.003436
v -0.031780 -0.010306 0.003541
v -0.048579 -0.010678 0.003840
v -0.048852 -0.010690 -0.003595
v 0.049447 -0.025014 -0.003848
v 0.048595 -0.011648 0.004810
v 0.003159 0.007468 -0.004855
v 0.049822 -0.011660 -0.003579
vn 0.0730 0.9913 -0.1095
vn 0.0626 0.9940 0.0894
vn 0.1389 0.9844 -0.1084
vn 0.1444 0.9848 -0.0964
vn 0.0737 0.9923 0.0994
vn 0.1450 0.9848 0.0960
vn 0.1138 -0.0621 0.9916
vn 0.0505 0.1278 0.9905
vn 0.0610 0.1236 0.9905
vn 0.0656 0.6381 0.7671
vn -0.0953 -0.1016 0.9902
vn 0.0971 -0.1001 0.9902
vn 0.0965 0.6343 0.7671
vn 0.0954 -0.1016 0.9902
vn -0.2047 0.6081 0.7670
vn 0.0825 0.0894 0.9926
vn 0.0008 0.1058 0.9944
vn 0.1029 -0.0812 0.9914
vn -0.4923 0.4239 0.7602
vn 0.1124 -0.0661 0.9915
vn 0.0466 0.1215 0.9915
vn -0.6212 0.1500 0.7691
vn 0.0491 0.0848 0.9952
vn -0.6265 -0.1265 0.7690
vn 0.0826 0.0976 0.9918
vn 0.0667 0.1140 0.9912
vn -0.3387 -0.5186 0.7851
vn -0.4365 -0.4449 0.7820
vn 0.0604 0.1167 0.9913
vn -0.2081 -0.5876 0.7820
vn 0.0002 0.1656 0.9862
vn -0.0643 0.1627 0.9846
vn 0.1513 -0.5686 0.8086
vn 0.1348 -0.5732 0.8083
vn -0.0862 0.1512 0.9847
vn 0.3896 -0.4438 0.8070
vn 0.2708 -0.2366 0.9331
vn -0.4253 0.0796 0.9016
vn 0.3005 0.1164 0.9466
vn 0.6284 -0.0347 0.7771
vn -0.0800 0.1100 0.9907
vn -0.0762 0.1063 0.9914
vn 0.6233 -0.0690 0.7789
vn -0.0515 0.1224 0.9911
vn -0.1159 -0.0607 0.9914
vn 0.1012 0.1036 0.9895
vn -0.0566 0.1116 0.9921
vn -0.0499 0.1147 0.9921
vn -0.1199 -0.0561 0.9912
vn -0.0214 0.1355 0.9905
vn -0.1227 0.1314 0.9837
vn -0.1100 0.9907 -0.0805
vn -0.1108 0.9907 0.0785
vn -0.0557 0.9935 -0.0996
vn -0.0407 0.9954 -0.0864
vn -0.1050 0.9901 0.0932
vn -0.0550 0.9922 0.1118
vn -0.0975 -0.1017 -0.9900
vn 0.3758 0.5191 -0.7677
vn 0.0989 0.6332 -0.7676
vn -0.0970 -0.1045 -0.9898
vn 0.0825 0.6326 -0.7701
vn 0.0965 -0.1052 -0.9898
vn -0.1189 0.1227 -0.9853
vn -0.0188 0.1252 -0.9919
vn -0.1194 -0.0643 -0.9908
vn 0.0756 0.0942 -0.9927
vn -0.5645 -0.3093 -0.7653
vn 0.0715 0.1035 -0.9921
vn 0.0876 0.1074 -0.9903
vn -0.5807 -0.2448 -0.7765
vn -0.4494 -0.4162 -0.7905
vn 0.1054 0.0907 -0.9903
vn -0.0460 0.1023 -0.9937
vn -0.0530 0.0990 -0.9937
vn -0.1117 -0.0719 -0.9911
vn -0.0560 0.1112 -0.9922
vn 0.5787 0.2761 -0.7674
vn 0.5830 0.2561 -0.7710
vn -0.0504 0.0829 -0.9953
vn 0.6364 -0.0238 -0.7710
vn 0.2488 -0.5593 -0.7908
vn -0.0428 0.1393 -0.9893
vn 0.0193 0.1482 -0.9888
vn 0.4791 -0.3955 -0.7836
vn -0.0811 0.0955 -0.9921
vn -0.0721 0.1081 -0.9915
vn 0.4486 -0.4354 -0.7805
vn -0.0634 0.1088 -0.9920
vn 0.2669 -0.5651 -0.7807
vn 0.0975 -0.1014 -0.9901
vn -0.2458 0.5922 -0.7674
vn -0.4862 0.4180 -0.7674
vn 0.1045 -0.0821 -0.9911
vn -0.4561 0.4594 -0.7622
vn 0.0542 0.1072 -0.9928
vn 0.0753 0.1843 -0.9800
vn -0.4421 0.5081 -0.7392
vn 0.0863 0.1795 -0.9800
vn 0.1209 -0.0642 -0.9906
vn 0.0180 0.1244 -0.9921
vn 0.1171 0.1243 -0.9853
vn 0.0807 -0.9935 -0.0799
vn 0.0798 -0.9934 0.0828
vn -0.0969 -0.9906 -0.0965
vn -0.0974 -0.9912 -0.0899
vn 0.0796 -0.9928 0.0892
vn -0.0978 -0.9897 0.1049
vn -0.9931 -0.0815 0.0839
vn -0.9901 0.0936 0.1045
vn -0.9938 -0.0791 -0.0786
vn -0.9934 -0.0749 -0.0870
vn -0.9905 0.1015 0.0926
vn -0.9892 0.1016 -0.1058
vn 0.9878 -0.1239 -0.0948
vn 0.9956 0.0535 -0.0775
vn 0.9871 -0.1241 0.1007
vn 0.9845 -0.0996 0.1442
vn 0.9965 0.0739 -0.0378
vn 0.9853 0.0974 0.1402
vn 0.6142 0.7837 -0.0922
vn 0.6046 0.7902 0.1000
vn 0.6303 0.7709 -0.0917
vn 0.6393 0.7641 -0.0861
vn 0.6099 0.7847 0.1109
vn 0.6261 0.7717 0.1118
vn 0.2632 0.9601 0.0939
vn 0.3352 0.9294 -0.1546
vn 0.2174 0.9695 -0.1132
vn 0.3135 0.9448 0.0951
vn 0.2572 0.9608 -0.1039
vn 0.1820 0.9742 0.1337
vn -0.2642 0.9585 0.1070
vn -0.1881 0.9735 -0.1302
vn -0.3192 0.9432 -0.0924
vn -0.2513 0.9598 0.1253
vn -0.3115 0.9476 -0.0714
vn -0.3535 0.9173 0.1833
vn -0.6261 0.7717 -0.1118
vn -0.6393 0.7641 0.0861
vn -0.6099 0.7847 -0.1109
vn -0.5955 0.8020 -0.0464
vn -0.6149 0.7746 0.1482
vn -0.5954 0.7898 0.1474
vn -0.5547 -0.4618 -0.6921
vn -0.6635 -0.3203 -0.6762
vn -0.5607 -0.0985 0.8221
vn -0.6771 -0.0642 0.7331
vn -0.6355 -0.0141 -0.7720
vn -0.6594 0.1904 0.7273
vn -0.1254 0.6247 0.7708
vn -0.5357 0.4419 -0.7195
vn -0.3393 0.5907 -0.7320
vn -0.1455 0.7001 0.6990
vn -0.2449 0.5164 -0.8206
vn 0.0668 0.7171 0.6938
vn 0.3253 0.4919 0.8076
vn 0.1526 0.6613 -0.7344
vn 0.4001 0.5539 -0.7301
vn 0.6853 -0.2641 0.6787
vn 0.5774 0.3263 -0.7484
vn 0.6297 0.0637 -0.7742
vn 0.6813 0.0688 0.7288
vn 0.5661 0.3190 -0.7601
vn 0.6825 -0.1575 0.7137
vn 0.0591 -0.6471 0.7601
vn 0.5174 -0.4722 -0.7137
vn 0.3305 -0.5997 -0.7288
vn 0.3053 -0.5544 0.7742
vn 0.6065 -0.4140 -0.6788
vn 0.0595 -0.6606 0.7484
vn -0.2323 -0.6427 0.7300
vn -0.2267 -0.5435 -0.8082
vn -0.4587 -0.4998 0.7347
vn 0.3013 0.9486 -0.0965
vn 0.4019 0.9156 0.0126
vn 0.3756 0.9246 0.0642
vn 0.3425 0.9373 -0.0643
vn 0.4136 0.9053 0.0964
vn 0.3168 0.9484 -0.0127
vn -0.3013 0.9486 0.0965
vn -0.4019 0.9156 -0.0126
vn -0.3756 0.9246 -0.0642
vn -0.3425 0.9373 0.0643
vn -0.4136 0.9053 -0.0964
vn -0.3168 0.9484 0.0127
vn -0.1465 0.5403 0.8286
vn -0.0388 0.5144 0.8566
vn -0.0511 0.7024 0.7100
vn -0.0820 0.8607 0.5024
vn -0.0002 0.7259 0.6878
vn -0.0522 0.8604 0.5070
vn -0.2525 0.8011 0.5427
vn -0.1811 0.8115 0.5556
vn -0.4058 0.5580 0.7239
vn -0.3779 0.7182 0.5843
vn -0.2005 0.9263 0.3190
vn -0.3525 0.7259 0.5906
vn -0.5475 0.8302 0.1051
vn -0.5880 0.8073 -0.0509
vn -0.7441 0.6581 0.1155
vn -0.8579 0.5065 0.0860
vn -0.7133 0.7003 -0.0270
vn -0.8333 0.5386 -0.1248
vn -0.5756 -0.0782 0.8140
vn -0.6015 0.0856 0.7943
vn -0.7399 -0.1239 0.6612
vn -0.4213 0.5295 0.7363
vn -0.4259 0.5214 0.7394
vn -0.5493 0.6101 0.5710
vn 0.1259 0.6715 0.7302
vn 0.4149 0.7652 0.4923
vn 0.0281 0.7647 0.6438
vn 0.0235 0.2324 0.9723
vn 0.0408 0.5912 0.8055
vn -0.1383 0.2756 0.9513
vn -0.0345 0.7270 -0.6858
vn -0.0927 0.7203 -0.6875
vn -0.0548 0.8605 -0.5066
vn -0.0400 0.8047 -0.5924
vn -0.1079 0.6553 -0.7476
vn -0.1001 0.8270 -0.5532
vn -0.8656 0.0831 -0.4937
vn -0.7217 -0.0573 -0.6899
vn -0.8534 -0.1600 -0.4962
vn -0.1326 -0.7820 0.6090
vn 0.0686 -0.8057 0.5884
vn -0.0651 -0.6335 0.7710
vn 0.1419 -0.6861 0.7135
vn 0.0988 -0.7595 0.6429
vn 0.0607 -0.5986 0.7987
vn 0.3971 0.5242 0.7534
vn 0.4115 0.5032 0.7599
vn 0.5037 0.6357 0.5850
vn 0.5127 0.6532 0.5572
vn 0.4240 0.5309 0.7338
vn 0.5311 0.6367 0.5590
vn -0.2990 0.8463 -0.4409
vn -0.4009 0.8044 -0.4384
vn -0.2218 0.6158 -0.7560
vn -0.2421 0.6575 -0.7135
vn -0.4368 0.8115 -0.3882
vn -0.2933 0.6334 -0.7160
vn 0.2994 0.8485 0.4363
vn 0.4017 0.8066 0.4337
vn 0.2240 0.6191 0.7527
vn 0.2339 0.6452 0.7273
vn 0.4265 0.8088 0.4049
vn 0.2895 0.6198 0.7294
vn -0.5321 0.6344 -0.5607
vn -0.5118 0.6522 -0.5592
vn -0.4206 0.5322 -0.7348
vn -0.4117 0.5030 -0.7599
vn -0.5039 0.6355 -0.5850
vn -0.3972 0.5240 -0.7534
vn -0.0651 -0.7046 -0.7067
vn 0.0683 -0.7136 -0.6973
vn -0.1247 -0.8366 -0.5334
vn -0.1026 -0.8675 -0.4867
vn 0.0349 -0.7249 -0.6879
vn 0.1396 -0.8560 -0.4978
vn 0.5582 0.0876 0.8250
vn 0.5897 -0.0966 0.8018
vn 0.7526 0.0956 0.6515
vn 0.8146 0.0631 0.5766
vn 0.6348 -0.0667 0.7698
vn 0.7839 -0.1365 0.6057
vn 0.0308 0.7290 0.6838
vn 0.0878 0.7292 0.6787
vn 0.0540 0.8617 0.5045
vn 0.0465 0.8494 0.5257
vn 0.0405 0.7033 0.7097
vn 0.1411 0.8226 0.5509
vn -0.1266 0.6709 -0.7306
vn -0.4175 0.7629 -0.4936
vn -0.0300 0.7651 -0.6432
vn 0.3400 0.7022 -0.6255
vn 0.1429 0.9218 -0.3604
vn 0.3863 0.8806 -0.2745
vn -0.1707 0.3537 -0.9197
vn 0.0761 0.6221 -0.7792
vn 0.1462 0.5756 -0.8046
vn 0.4138 0.5462 -0.7283
vn 0.4191 0.5377 -0.7316
vn 0.5378 0.6293 -0.5611
vn 0.5075 0.6151 -0.6034
vn 0.3822 0.5307 -0.7565
vn 0.5155 0.6187 -0.5928
vn 0.6993 -0.0619 -0.7121
vn 0.7105 0.0721 -0.7000
vn 0.8328 -0.1253 -0.5392
vn 0.7894 -0.1112 -0.6037
vn 0.6436 0.0894 -0.7602
vn 0.8193 0.0732 -0.5686
vn 0.5638 0.8122 -0.1497
vn 0.5438 0.8359 0.0745
vn 0.7249 0.6864 -0.0581
vn 0.2523 0.8006 -0.5435
vn 0.1808 0.8110 -0.5564
vn 0.4057 0.5576 -0.7242
vn 0.3765 0.7151 -0.5890
vn 0.1993 0.9246 -0.3247
vn 0.3509 0.7228 -0.5953
vn 0.1115 0.8576 -0.5021
vn -0.0068 0.7263 -0.6874
vn 0.0513 0.8599 -0.5078
s 0
f 43//1 42//2 26//3
f 26//4 42//5 31//6
f 3//7 4//8 5//9
f 1//10 2//11 3//12
f 1//13 3//14 6//15
f 49//16 4//17 3//18
f 6//19 3//20 5//21
f 6//22 5//23 7//24
f 5//25 9//26 7//27
f 7//28 9//29 8//30
f 9//31 39//32 8//33
f 8//34 39//35 10//36
f 10//37 39//38 1//39
f 1//40 39//41 11//42
f 1//43 11//44 2//45
f 2//46 11//47 12//48
f 2//49 12//50 29//51
f 47//52 46//53 44//54
f 44//55 46//56 45//57
f 14//58 13//59 15//60
f 14//61 15//62 16//63
f 17//64 18//65 14//66
f 21//67 20//68 50//69
f 50//70 20//71 22//72
f 14//73 18//74 24//75
f 14//76 24//77 13//78
f 13//79 24//80 25//81
f 22//82 23//83 50//84
f 25//85 24//86 23//87
f 25//88 23//89 22//90
f 16//91 15//92 20//93
f 16//94 20//95 19//96
f 19//97 20//98 21//99
f 16//100 19//101 26//102
f 48//103 30//104 27//105
f 27//106 30//107 28//108
f 28//109 29//110 27//111
f 27//112 29//113 17//114
f 48//115 51//116 30//117
f 30//118 51//119 31//120
f 32//121 33//122 34//123
f 34//124 33//125 35//126
f 33//127 32//128 36//129
f 33//130 36//131 37//132
f 37//133 36//134 38//135
f 37//136 38//137 39//138
f 40//139 41//140 38//141
f 38//142 41//143 39//144
f 22//145 20//146 7//147
f 7//148 20//149 6//150
f 6//151 20//152 15//153
f 6//154 15//155 1//156
f 1//157 15//158 13//159
f 1//160 13//161 25//162
f 1//163 25//164 10//165
f 10//166 25//167 22//168
f 10//169 22//170 8//171
f 8//172 22//173 7//174
f 34//175 35//176 42//177
f 34//178 42//179 43//180
f 41//181 40//182 44//183
f 41//184 44//185 45//186
f 29//187 12//188 46//189
f 46//190 12//191 45//192
f 41//193 45//194 12//195
f 11//196 41//197 12//198
f 46//199 47//200 29//201
f 29//202 47//203 17//204
f 2//205 29//206 28//207
f 11//208 39//209 41//210
f 9//211 33//212 37//213
f 9//214 37//215 39//216
f 18//217 17//218 44//219
f 44//220 17//221 47//222
f 17//223 14//224 27//225
f 28//226 30//227 2//228
f 2//229 30//230 3//231
f 9//232 5//233 33//234
f 33//235 5//236 35//237
f 44//238 40//239 18//240
f 18//241 40//242 24//243
f 42//244 35//245 4//246
f 4//247 35//248 5//249
f 40//250 38//251 24//252
f 24//253 38//254 23//255
f 14//256 16//257 27//258
f 27//259 16//260 48//261
f 49//262 3//263 31//264
f 31//265 3//266 30//267
f 4//268 49//269 42//270
f 42//271 49//272 31//273
f 23//274 38//275 36//276
f 50//277 36//278 32//279
f 23//280 36//281 50//282
f 21//283 50//284 34//285
f 34//286 50//287 32//288
f 16//289 26//290 48//291
f 48//292 26//293 51//294
f 26//295 31//296 51//297
f 34//298 43//299 19//300
f 21//301 34//302 19//303
f 26//304 19//305 43//306
