v 0.03656600043177605 -0.010499999858438969 -0.0030000000260770317
v 0.03656600043177605 -0.010499999858438969 0.0030000000260770317
v 0.04800000041723251 -0.010499999858438969 -0.0030000000260770317
v 0.04800000041723251 -0.010499999858438969 0.0030000000260770317
v -0.004000000189989805 0.0 0.00499999988824129
v -0.04800000041723251 -0.023499999195337296 0.00499999988824129
v -0.003541999962180853 -0.001858999952673912 0.00499999988824129
v -0.0022720000706613064 -0.0032919999212026596 0.00499999988824129
v 0.04800000041723251 -0.023499999195337296 0.00499999988824129
v 0.028793999925255775 -0.011541999876499176 0.00499999988824129
v 0.02505500055849552 -0.010358000174164772 0.00499999988824129
v -0.0004820000031031668 -0.003971000202000141 0.00499999988824129
v 0.0014179999707266688 -0.0037400000728666782 0.00499999988824129
v 0.04800000041723251 -0.012500000186264515 0.00499999988824129
v 0.03656600043177605 -0.012500000186264515 0.00499999988824129
v 0.03265099972486496 -0.012260000221431255 0.00499999988824129
v 0.002993999980390072 -0.0026519999373704195 0.00499999988824129
v 0.0038840000052005053 -0.000957000011112541 0.00499999988824129
v 0.021487999707460403 -0.008724999614059925 0.00499999988824129
v 0.0038840000052005053 0.000957000011112541 0.00499999988824129
v 0.018147999420762062 -0.006668000016361475 0.00499999988824129
v 0.015084999613463879 -0.004217999987304211 0.00499999988824129
v 0.002993999980390072 0.0026519999373704195 0.00499999988824129
v 0.0007350000087171793 0.0069610001519322395 0.00499999988824129
v -0.0004820000031031668 0.003971000202000141 0.00499999988824129
v 0.0014179999707266688 0.0037400000728666782 0.00499999988824129
v 0.004699000157415867 0.005187999922782183 0.00499999988824129
v 0.003512999974191189 0.006054999772459269 0.00499999988824129
v 0.002171000000089407 0.006655000150203705 0.00499999988824129
v -0.0007350000087171793 0.0069610001519322395 0.00499999988824129
v -0.002171000000089407 0.006655000150203705 0.00499999988824129
v -0.0022720000706613064 0.0032919999212026596 0.00499999988824129
v -0.003512999974191189 0.006054999772459269 0.00499999988824129
v -0.003541999962180853 0.001858999952673912 0.00499999988824129
v -0.004699000157415867 0.005187999922782183 0.00499999988824129
v -0.015084999613463879 -0.004217999987304211 0.00499999988824129
v -0.018147999420762062 -0.006668000016361475 0.00499999988824129
v -0.021487999707460403 -0.008724999614059925 0.00499999988824129
v -0.02505500055849552 -0.010358000174164772 0.00499999988824129
v -0.028793999925255775 -0.011541999876499176 0.00499999988824129
v -0.03265099972486496 -0.012260000221431255 0.00499999988824129
v -0.03656600043177605 -0.012500000186264515 0.00499999988824129
v -0.04800000041723251 -0.012500000186264515 0.00499999988824129
v -0.04800000041723251 -0.010499999858438969 -0.0030000000260770317
v -0.04800000041723251 -0.010499999858438969 0.0030000000260770317
v -0.03656600043177605 -0.010499999858438969 -0.0030000000260770317
v -0.03656600043177605 -0.010499999858438969 0.0030000000260770317
v -0.003541999962180853 -0.001858999952673912 -0.00499999988824129
v -0.0022720000706613064 -0.0032919999212026596 -0.00499999988824129
v -0.04800000041723251 -0.023499999195337296 -0.00499999988824129
v -0.0004820000031031668 -0.003971000202000141 -0.00499999988824129
v 0.04800000041723251 -0.023499999195337296 -0.00499999988824129
v -0.04800000041723251 -0.012500000186264515 -0.00499999988824129
v -0.03656600043177605 -0.012500000186264515 -0.00499999988824129
v -0.03265099972486496 -0.012260000221431255 -0.00499999988824129
v -0.028793999925255775 -0.011541999876499176 -0.00499999988824129
v 0.02505500055849552 -0.010358000174164772 -0.00499999988824129
v 0.028793999925255775 -0.011541999876499176 -0.00499999988824129
v 0.0038840000052005053 -0.000957000011112541 -0.00499999988824129
v 0.004000000189989805 0.0 -0.00499999988824129
v 0.015084999613463879 -0.004217999987304211 -0.00499999988824129
v 0.0038840000052005053 0.000957000011112541 -0.00499999988824129
v 0.004699000157415867 0.005187999922782183 -0.00499999988824129
v 0.002993999980390072 0.0026519999373704195 -0.00499999988824129
v 0.003512999974191189 0.006054999772459269 -0.00499999988824129
v 0.0014179999707266688 0.0037400000728666782 -0.00499999988824129
v -0.002171000000089407 0.006655000150203705 -0.00499999988824129
v -0.0004820000031031668 0.003971000202000141 -0.00499999988824129
v -0.0022720000706613064 0.0032919999212026596 -0.00499999988824129
v -0.02505500055849552 -0.010358000174164772 -0.00499999988824129
v -0.021487999707460403 -0.008724999614059925 -0.00499999988824129
v -0.004000000189989805 0.0 -0.00499999988824129
v 0.002993999980390072 -0.0026519999373704195 -0.00499999988824129
v 0.018147999420762062 -0.006668000016361475 -0.00499999988824129
v 0.021487999707460403 -0.008724999614059925 -0.00499999988824129
v -0.0007350000087171793 0.0069610001519322395 -0.00499999988824129
v 0.0007350000087171793 0.0069610001519322395 -0.00499999988824129
v 0.002171000000089407 0.006655000150203705 -0.00499999988824129
v -0.018147999420762062 -0.006668000016361475 -0.00499999988824129
v -0.015084999613463879 -0.004217999987304211 -0.00499999988824129
v -0.003541999962180853 0.001858999952673912 -0.00499999988824129
v -0.004699000157415867 0.005187999922782183 -0.00499999988824129
v -0.003512999974191189 0.006054999772459269 -0.00499999988824129
v 0.0014179999707266688 -0.0037400000728666782 -0.00499999988824129
v 0.03265099972486496 -0.012260000221431255 -0.00499999988824129
v 0.03656600043177605 -0.012500000186264515 -0.00499999988824129
v 0.04800000041723251 -0.012500000186264515 -0.00499999988824129
v 0.04800000041723251 -0.025499999523162842 -0.0030000000260770317
v 0.04800000041723251 -0.025499999523162842 0.0030000000260770317
v -0.04800000041723251 -0.025499999523162842 -0.0030000000260770317
v -0.04800000041723251 -0.025499999523162842 0.0030000000260770317
v -0.05000000074505806 -0.023499999195337296 0.0030000000260770317
v -0.05000000074505806 -0.012500000186264515 0.0030000000260770317
v -0.05000000074505806 -0.023499999195337296 -0.0030000000260770317
v -0.05000000074505806 -0.012500000186264515 -0.0030000000260770317
v 0.05000000074505806 -0.023499999195337296 -0.0030000000260770317
v 0.05000000074505806 -0.012500000186264515 -0.0030000000260770317
v 0.05000000074505806 -0.023499999195337296 0.0030000000260770317
v 0.05000000074505806 -0.012500000186264515 0.0030000000260770317
v 0.006041999906301498 0.0066709998063743114 -0.0030000000260770317
v 0.006041999906301498 0.0066709998063743114 0.0030000000260770317
v 0.016426999121904373 -0.0027360001113265753 -0.0030000000260770317
v 0.016426999121904373 -0.0027360001113265753 0.0030000000260770317
v 0.004515999928116798 0.007784999907016754 0.0030000000260770317
v 0.004515999928116798 0.007784999907016754 -0.0030000000260770317
v 0.003845999948680401 0.008136999793350697 0.0030000000260770317
v 0.003845999948680401 0.008136999793350697 -0.0030000000260770317
v 0.0027920000720769167 0.008555999957025051 0.0030000000260770317
v 0.0027920000720769167 0.008555999957025051 -0.0030000000260770317
v 0.0013200000394135714 0.008902999572455883 0.0030000000260770317
v 0.0013200000394135714 0.008902999572455883 -0.0030000000260770317
v 0.000944000028539449 0.008949999697506428 0.0030000000260770317
v 0.000944000028539449 0.008949999697506428 -0.0030000000260770317
v -0.000944000028539449 0.008949999697506428 0.0030000000260770317
v -0.000944000028539449 0.008949999697506428 -0.0030000000260770317
v -0.0013200000394135714 0.008902999572455883 0.0030000000260770317
v -0.0013200000394135714 0.008902999572455883 -0.0030000000260770317
v -0.0027920000720769167 0.008555999957025051 0.0030000000260770317
v -0.0027920000720769167 0.008555999957025051 -0.0030000000260770317
v -0.003845999948680401 0.008136999793350697 0.0030000000260770317
v -0.003845999948680401 0.008136999793350697 -0.0030000000260770317
v -0.004515999928116798 0.007784999907016754 0.0030000000260770317
v -0.004515999928116798 0.007784999907016754 -0.0030000000260770317
v -0.006041999906301498 0.0066709998063743114 0.0030000000260770317
v -0.006041999906301498 0.0066709998063743114 -0.0030000000260770317
v -0.016426999121904373 -0.0027360001113265753 -0.0030000000260770317
v -0.016426999121904373 -0.0027360001113265753 0.0030000000260770317
v 0.01929900050163269 -0.005032999906688929 -0.0030000000260770317
v 0.01929900050163269 -0.005032999906688929 0.0030000000260770317
v 0.019905999302864075 -0.005448999814689159 -0.0030000000260770317
v 0.019905999302864075 -0.005448999814689159 0.0030000000260770317
v 0.02243099920451641 -0.0069610001519322395 -0.0030000000260770317
v 0.02243099920451641 -0.0069610001519322395 0.0030000000260770317
v 0.02374500036239624 -0.007621999830007553 -0.0030000000260770317
v 0.02374500036239624 -0.007621999830007553 0.0030000000260770317
v 0.025774000212550163 -0.00849200040102005 -0.0030000000260770317
v 0.025774000212550163 -0.00849200040102005 0.0030000000260770317
v 0.027861999347805977 -0.009208999574184418 -0.0030000000260770317
v 0.027861999347805977 -0.009208999574184418 0.0030000000260770317
v 0.029279999434947968 -0.009602000005543232 -0.0030000000260770317
v 0.029279999434947968 -0.009602000005543232 0.0030000000260770317
v 0.032166000455617905 -0.01017600018531084 -0.0030000000260770317
v 0.032166000455617905 -0.01017600018531084 0.0030000000260770317
v 0.032896000891923904 -0.010274999774992466 -0.0030000000260770317
v 0.032896000891923904 -0.010274999774992466 0.0030000000260770317
v -0.01929900050163269 -0.005032999906688929 0.0030000000260770317
v -0.01929900050163269 -0.005032999906688929 -0.0030000000260770317
v -0.019905999302864075 -0.005448999814689159 0.0030000000260770317
v -0.019905999302864075 -0.005448999814689159 -0.0030000000260770317
v -0.02243099920451641 -0.0069610001519322395 0.0030000000260770317
v -0.02243099920451641 -0.0069610001519322395 -0.0030000000260770317
v -0.02374500036239624 -0.007621999830007553 0.0030000000260770317
v -0.02374500036239624 -0.007621999830007553 -0.0030000000260770317
v -0.025774000212550163 -0.00849200040102005 0.0030000000260770317
v -0.025774000212550163 -0.00849200040102005 -0.0030000000260770317
v -0.027861999347805977 -0.009208999574184418 0.0030000000260770317
v -0.027861999347805977 -0.009208999574184418 -0.0030000000260770317
v -0.029279999434947968 -0.009602000005543232 0.0030000000260770317
v -0.029279999434947968 -0.009602000005543232 -0.0030000000260770317
v -0.032166000455617905 -0.01017600018531084 0.0030000000260770317
v -0.032166000455617905 -0.01017600018531084 -0.0030000000260770317
v -0.032896000891923904 -0.010274999774992466 0.0030000000260770317
v -0.032896000891923904 -0.010274999774992466 -0.0030000000260770317
v -0.04800000041723251 -0.011734999716281891 0.00484800012782216
v -0.03656600043177605 -0.011734999716281891 0.00484800012782216
v -0.04800000041723251 -0.011500000022351742 0.0047320001758635035
v -0.03656600043177605 -0.011500000022351742 0.0047320001758635035
v -0.04800000041723251 -0.011086000129580498 0.004414000082761048
v -0.03656600043177605 -0.011086000129580498 0.004414000082761048
v -0.04800000041723251 -0.010768000036478043 0.004000000189989804
v -0.03656600043177605 -0.010768000036478043 0.004000000189989804
v -0.04800000041723251 -0.010652000084519386 0.0037650000303983684
v -0.03656600043177605 -0.010652000084519386 0.0037650000303983684
v -0.04973199963569641 -0.012500000186264515 0.004000000189989804
v -0.049414001405239105 -0.012500000186264515 0.004414000082761048
v -0.049306999891996384 -0.011734999716281891 0.004306999966502189
v -0.04899999871850014 -0.012500000186264515 0.0047320001758635035
v -0.04876499995589256 -0.012500000186264515 0.00484800012782216
v -0.04870700091123581 -0.011734999716281891 0.004707000218331813
v -0.04854099825024605 -0.011086000129580498 0.004306999966502189
v -0.04829299822449684 -0.010652000084519386 0.0037070000544190402
v -0.04899999871850014 -0.010768000036478043 0.0030000000260770317
v -0.049306999891996384 -0.011086000129580498 0.003540999954566359
v -0.04876499995589256 -0.010652000084519386 0.0030000000260770317
v -0.04870700091123581 -0.010652000084519386 0.0032929999288171525
v -0.04899999871850014 -0.011086000129580498 0.004000000189989804
v -0.04854099825024605 -0.010652000084519386 0.003540999954566359
v -0.04984800145030022 -0.012500000186264515 0.0037650000303983684
v -0.04970699921250343 -0.011734999716281891 0.0037070000544190402
v -0.049414001405239105 -0.011086000129580498 0.0030000000260770317
v -0.04973199963569641 -0.011500000022351742 0.0030000000260770317
v -0.04984800145030022 -0.011734999716281891 0.0030000000260770317
v -0.018588999286293983 -0.006041999906301498 0.00484800012782216
v -0.03274499997496605 -0.011500000022351742 0.00484800012782216
v -0.03287699818611145 -0.010425999760627747 0.0037650000303983684
v -0.03282399848103523 -0.010855999775230885 0.004414000082761048
v -0.02897999994456768 -0.010799000039696693 0.00484800012782216
v -0.029138000681996346 -0.010169999673962593 0.004414000082761048
v -0.029242999851703644 -0.009748999960720539 0.0037650000303983684
v -0.021849000826478004 -0.008050000295042992 0.00484800012782216
v -0.022154999896883965 -0.00747800013050437 0.004414000082761048
v -0.01896199956536293 -0.005512000061571598 0.004414000082761048
v -0.022359000518918037 -0.007094999775290489 0.0037650000303983684
v -0.01921200007200241 -0.005156999919563532 0.0037650000303983684
v -0.015598000027239323 -0.0036510000936686993 0.00484800012782216
v -0.015755999833345413 -0.003476999932900071 0.0047320001758635035
v -0.016033999621868134 -0.003169999923557043 0.004414000082761048
v -0.01624700054526329 -0.002933999989181757 0.004000000189989804
v -0.016325000673532486 -0.002848000032827258 0.0037650000303983684
v -0.02572000026702881 -0.008634000085294247 0.0037650000303983684
v -0.025564000010490417 -0.009038000367581844 0.004414000082761048
v -0.02532999962568283 -0.009643999859690666 0.00484800012782216
v -0.04876499995589256 -0.010652000084519386 -0.0030000000260770317
v -0.04899999871850014 -0.010768000036478043 -0.0030000000260770317
v -0.049414001405239105 -0.011086000129580498 -0.0030000000260770317
v -0.04973199963569641 -0.011500000022351742 -0.0030000000260770317
v -0.04984800145030022 -0.011734999716281891 -0.0030000000260770317
v -0.04876499995589256 -0.023499999195337296 0.00484800012782216
v -0.04899999871850014 -0.023499999195337296 0.0047320001758635035
v -0.049414001405239105 -0.023499999195337296 0.004414000082761048
v -0.04973199963569641 -0.023499999195337296 0.004000000189989804
v -0.04984800145030022 -0.023499999195337296 0.0037650000303983684
v -0.005212999880313873 0.005756000056862831 0.00484800012782216
v -0.005369999911636114 0.005929000210016966 0.0047320001758635035
v -0.005648000165820122 0.006237000226974487 0.004414000082761048
v -0.005861999932676554 0.006471999920904636 0.004000000189989804
v -0.005938999820500612 0.006558000110089779 0.0037650000303983684
v -0.04899999871850014 -0.012500000186264515 -0.0047320001758635035
v -0.049414001405239105 -0.012500000186264515 -0.004414000082761048
v -0.049306999891996384 -0.011734999716281891 -0.004306999966502189
v -0.04973199963569641 -0.012500000186264515 -0.004000000189989804
v -0.04984800145030022 -0.012500000186264515 -0.0037650000303983684
v -0.04970699921250343 -0.011734999716281891 -0.0037070000544190402
v -0.049306999891996384 -0.011086000129580498 -0.003540999954566359
v -0.04870700091123581 -0.010652000084519386 -0.0032929999288171525
v -0.04800000041723251 -0.010768000036478043 -0.004000000189989804
v -0.04854099825024605 -0.011086000129580498 -0.004306999966502189
v -0.04800000041723251 -0.010652000084519386 -0.0037650000303983684
v -0.04829299822449684 -0.010652000084519386 -0.0037070000544190402
v -0.04899999871850014 -0.011086000129580498 -0.004000000189989804
v -0.04854099825024605 -0.010652000084519386 -0.003540999954566359
v -0.04876499995589256 -0.012500000186264515 -0.00484800012782216
v -0.04870700091123581 -0.011734999716281891 -0.004707000218331813
v -0.04800000041723251 -0.011086000129580498 -0.004414000082761048
v -0.04800000041723251 -0.011500000022351742 -0.0047320001758635035
v -0.04800000041723251 -0.011734999716281891 -0.00484800012782216
v -0.04800000041723251 -0.025232000276446342 0.004000000189989804
v -0.04800000041723251 -0.024914000183343887 0.004414000082761048
v -0.04876499995589256 -0.024807000532746315 0.004306999966502189
v -0.04800000041723251 -0.02449999935925007 0.0047320001758635035
v -0.04800000041723251 -0.024265000596642494 0.00484800012782216
v -0.04876499995589256 -0.02420699968934059 0.004707000218331813
v -0.049414001405239105 -0.02404100075364113 0.004306999966502189
v -0.04984800145030022 -0.023793000727891922 0.0037070000544190402
v -0.04973199963569641 -0.02449999935925007 0.0030000000260770317
v -0.049414001405239105 -0.024807000532746315 0.003540999954566359
v -0.04984800145030022 -0.024265000596642494 0.0030000000260770317
v -0.04984800145030022 -0.02420699968934059 0.0032929999288171525
v -0.049414001405239105 -0.02449999935925007 0.004000000189989804
v -0.04984800145030022 -0.02404100075364113 0.003540999954566359
v -0.04800000041723251 -0.025348000228405 0.0037650000303983684
v -0.04876499995589256 -0.025206999853253365 0.0037070000544190402
v -0.049414001405239105 -0.024914000183343887 0.0030000000260770317
v -0.04899999871850014 -0.025232000276446342 0.0030000000260770317
v -0.04876499995589256 -0.025348000228405 0.0030000000260770317
v 0.005861999932676554 0.006471999920904636 0.004000000189989804
v 0.005938999820500612 0.006558000110089779 0.0037650000303983684
v 0.00443999981507659 0.007652999833226204 0.0037650000303983684
v -0.00443999981507659 0.007652999833226204 0.0037650000303983684
v 0.002744999947026372 0.008410999551415443 0.0037650000303983684
v 0.0009289999725297093 0.008798999711871147 0.0037650000303983684
v -0.0009289999725297093 0.008798999711871147 0.0037650000303983684
v -0.002744999947026372 0.008410999551415443 0.0037650000303983684
v 0.005369999911636114 0.005929000210016966 0.0047320001758635035
v 0.005648000165820122 0.006237000226974487 0.004414000082761048
v 0.004222000017762184 0.007278000004589558 0.004414000082761048
v 0.0026100000832229853 0.007999000139534473 0.004414000082761048
v 0.0008829999715089798 0.008368000388145447 0.004414000082761048
v -0.0008829999715089798 0.008368000388145447 0.004414000082761048
v -0.0026100000832229853 0.007999000139534473 0.004414000082761048
v -0.004222000017762184 0.007278000004589558 0.004414000082761048
v 0.005212999880313873 0.005756000056862831 0.00484800012782216
v 0.003897000104188919 0.0067170001566410065 0.00484800012782216
v 0.00240899994969368 0.0073819998651742935 0.00484800012782216
v 0.0008149999775923789 0.007722000125795603 0.00484800012782216
v -0.0008149999775923789 0.007722000125795603 0.00484800012782216
v -0.00240899994969368 0.0073819998651742935 0.00484800012782216
v -0.003897000104188919 0.0067170001566410065 0.00484800012782216
v -0.03656600043177605 -0.011734999716281891 -0.00484800012782216
v -0.03656600043177605 -0.011500000022351742 -0.0047320001758635035
v -0.03656600043177605 -0.011086000129580498 -0.004414000082761048
v -0.03656600043177605 -0.010768000036478043 -0.004000000189989804
v -0.03656600043177605 -0.010652000084519386 -0.0037650000303983684
v -0.04876499995589256 -0.023499999195337296 -0.00484800012782216
v -0.04899999871850014 -0.023499999195337296 -0.0047320001758635035
v -0.049414001405239105 -0.023499999195337296 -0.004414000082761048
v -0.04973199963569641 -0.023499999195337296 -0.004000000189989804
v -0.04984800145030022 -0.023499999195337296 -0.0037650000303983684
v -0.04876499995589256 -0.025348000228405 -0.0030000000260770317
v -0.04899999871850014 -0.025232000276446342 -0.0030000000260770317
v -0.049414001405239105 -0.024914000183343887 -0.0030000000260770317
v -0.04973199963569641 -0.02449999935925007 -0.0030000000260770317
v -0.04984800145030022 -0.024265000596642494 -0.0030000000260770317
v 0.04800000041723251 -0.025348000228405 0.0037650000303983684
v 0.04800000041723251 -0.025232000276446342 0.004000000189989804
v 0.04800000041723251 -0.024914000183343887 0.004414000082761048
v 0.04800000041723251 -0.02449999935925007 0.0047320001758635035
v 0.04800000041723251 -0.024265000596642494 0.00484800012782216
v 0.015598000027239323 -0.0036510000936686993 0.00484800012782216
v 0.015755999833345413 -0.003476999932900071 0.0047320001758635035
v 0.016033999621868134 -0.003169999923557043 0.004414000082761048
v 0.01624700054526329 -0.002933999989181757 0.004000000189989804
v 0.016325000673532486 -0.002848000032827258 0.0037650000303983684
v -0.03274499997496605 -0.011500000022351742 -0.00484800012782216
v -0.015598000027239323 -0.0036510000936686993 -0.00484800012782216
v -0.018588999286293983 -0.006041999906301498 -0.00484800012782216
v -0.01921200007200241 -0.005156999919563532 -0.0037650000303983684
v -0.01624700054526329 -0.002933999989181757 -0.004000000189989804
v -0.01896199956536293 -0.005512000061571598 -0.004414000082761048
v -0.016033999621868134 -0.003169999923557043 -0.004414000082761048
v -0.015755999833345413 -0.003476999932900071 -0.0047320001758635035
v -0.021849000826478004 -0.008050000295042992 -0.00484800012782216
v -0.022154999896883965 -0.00747800013050437 -0.004414000082761048
v -0.022359000518918037 -0.007094999775290489 -0.0037650000303983684
v -0.02897999994456768 -0.010799000039696693 -0.00484800012782216
v -0.029138000681996346 -0.010169999673962593 -0.004414000082761048
v -0.03282399848103523 -0.010855999775230885 -0.004414000082761048
v -0.029242999851703644 -0.009748999960720539 -0.0037650000303983684
v -0.03287699818611145 -0.010425999760627747 -0.0037650000303983684
v -0.016325000673532486 -0.002848000032827258 -0.0037650000303983684
v -0.02572000026702881 -0.008634000085294247 -0.0037650000303983684
v -0.025564000010490417 -0.009038000367581844 -0.004414000082761048
v -0.02532999962568283 -0.009643999859690666 -0.00484800012782216
v -0.04800000041723251 -0.02449999935925007 -0.0047320001758635035
v -0.04800000041723251 -0.024914000183343887 -0.004414000082761048
v -0.04876499995589256 -0.024807000532746315 -0.004306999966502189
v -0.04800000041723251 -0.025232000276446342 -0.004000000189989804
v -0.04800000041723251 -0.025348000228405 -0.0037650000303983684
v -0.04876499995589256 -0.025206999853253365 -0.0037070000544190402
v -0.049414001405239105 -0.024807000532746315 -0.003540999954566359
v -0.04984800145030022 -0.02420699968934059 -0.0032929999288171525
v -0.049414001405239105 -0.02404100075364113 -0.004306999966502189
v -0.04984800145030022 -0.023793000727891922 -0.0037070000544190402
v -0.049414001405239105 -0.02449999935925007 -0.004000000189989804
v -0.04984800145030022 -0.02404100075364113 -0.003540999954566359
v -0.04800000041723251 -0.024265000596642494 -0.00484800012782216
v -0.04876499995589256 -0.02420699968934059 -0.004707000218331813
v 0.04973199963569641 -0.023499999195337296 0.004000000189989804
v 0.049414001405239105 -0.023499999195337296 0.004414000082761048
v 0.049306999891996384 -0.024265000596642494 0.004306999966502189
v 0.04899999871850014 -0.023499999195337296 0.0047320001758635035
v 0.04876499995589256 -0.023499999195337296 0.00484800012782216
v 0.04870700091123581 -0.024265000596642494 0.004707000218331813
v 0.04854099825024605 -0.024914000183343887 0.004306999966502189
v 0.04829299822449684 -0.025348000228405 0.0037070000544190402
v 0.04899999871850014 -0.025232000276446342 0.0030000000260770317
v 0.049306999891996384 -0.024914000183343887 0.003540999954566359
v 0.04876499995589256 -0.025348000228405 0.0030000000260770317
v 0.04870700091123581 -0.025348000228405 0.0032929999288171525
v 0.04899999871850014 -0.024914000183343887 0.004000000189989804
v 0.04854099825024605 -0.025348000228405 0.003540999954566359
v 0.04984800145030022 -0.023499999195337296 0.0037650000303983684
v 0.04970699921250343 -0.024265000596642494 0.0037070000544190402
v 0.049414001405239105 -0.024914000183343887 0.0030000000260770317
v 0.04973199963569641 -0.02449999935925007 0.0030000000260770317
v 0.04984800145030022 -0.024265000596642494 0.0030000000260770317
v 0.03274499997496605 -0.011500000022351742 0.00484800012782216
v 0.018588999286293983 -0.006041999906301498 0.00484800012782216
v 0.01921200007200241 -0.005156999919563532 0.0037650000303983684
v 0.01896199956536293 -0.005512000061571598 0.004414000082761048
v 0.021849000826478004 -0.008050000295042992 0.00484800012782216
v 0.022154999896883965 -0.00747800013050437 0.004414000082761048
v 0.022359000518918037 -0.007094999775290489 0.0037650000303983684
v 0.02897999994456768 -0.010799000039696693 0.00484800012782216
v 0.029138000681996346 -0.010169999673962593 0.004414000082761048
v 0.03282399848103523 -0.010855999775230885 0.004414000082761048
v 0.029242999851703644 -0.009748999960720539 0.0037650000303983684
v 0.03287699818611145 -0.010425999760627747 0.0037650000303983684
v 0.03656600043177605 -0.011734999716281891 0.00484800012782216
v 0.03656600043177605 -0.011500000022351742 0.0047320001758635035
v 0.03656600043177605 -0.011086000129580498 0.004414000082761048
v 0.03656600043177605 -0.010768000036478043 0.004000000189989804
v 0.03656600043177605 -0.010652000084519386 0.0037650000303983684
v 0.02572000026702881 -0.008634000085294247 0.0037650000303983684
v 0.025564000010490417 -0.009038000367581844 0.004414000082761048
v 0.02532999962568283 -0.009643999859690666 0.00484800012782216
v -0.005938999820500612 0.006558000110089779 -0.0037650000303983684
v -0.005861999932676554 0.006471999920904636 -0.004000000189989804
v -0.005648000165820122 0.006237000226974487 -0.004414000082761048
v -0.005369999911636114 0.005929000210016966 -0.0047320001758635035
v -0.005212999880313873 0.005756000056862831 -0.00484800012782216
v 0.04800000041723251 -0.024265000596642494 -0.00484800012782216
v 0.04800000041723251 -0.02449999935925007 -0.0047320001758635035
v 0.04800000041723251 -0.024914000183343887 -0.004414000082761048
v 0.04800000041723251 -0.025232000276446342 -0.004000000189989804
v 0.04800000041723251 -0.025348000228405 -0.0037650000303983684
v 0.04876499995589256 -0.025348000228405 -0.0030000000260770317
v 0.04899999871850014 -0.025232000276446342 -0.0030000000260770317
v 0.049414001405239105 -0.024914000183343887 -0.0030000000260770317
v 0.04973199963569641 -0.02449999935925007 -0.0030000000260770317
v 0.04984800145030022 -0.024265000596642494 -0.0030000000260770317
v 0.04876499995589256 -0.012500000186264515 0.00484800012782216
v 0.04899999871850014 -0.012500000186264515 0.0047320001758635035
v 0.049414001405239105 -0.012500000186264515 0.004414000082761048
v 0.04973199963569641 -0.012500000186264515 0.004000000189989804
v 0.04984800145030022 -0.012500000186264515 0.0037650000303983684
v 0.04800000041723251 -0.011734999716281891 0.00484800012782216
v 0.04800000041723251 -0.011500000022351742 0.0047320001758635035
v 0.04800000041723251 -0.011086000129580498 0.004414000082761048
v 0.04800000041723251 -0.010768000036478043 0.004000000189989804
v 0.04800000041723251 -0.010652000084519386 0.0037650000303983684
v -0.00443999981507659 0.007652999833226204 -0.0037650000303983684
v 0.00443999981507659 0.007652999833226204 -0.0037650000303983684
v -0.002744999947026372 0.008410999551415443 -0.0037650000303983684
v -0.0009289999725297093 0.008798999711871147 -0.0037650000303983684
v 0.0009289999725297093 0.008798999711871147 -0.0037650000303983684
v 0.002744999947026372 0.008410999551415443 -0.0037650000303983684
v -0.004222000017762184 0.007278000004589558 -0.004414000082761048
v -0.0026100000832229853 0.007999000139534473 -0.004414000082761048
v -0.0008829999715089798 0.008368000388145447 -0.004414000082761048
v 0.0008829999715089798 0.008368000388145447 -0.004414000082761048
v 0.0026100000832229853 0.007999000139534473 -0.004414000082761048
v 0.004222000017762184 0.007278000004589558 -0.004414000082761048
v -0.003897000104188919 0.0067170001566410065 -0.00484800012782216
v 0.005938999820500612 0.006558000110089779 -0.0037650000303983684
v 0.005861999932676554 0.006471999920904636 -0.004000000189989804
v 0.005648000165820122 0.006237000226974487 -0.004414000082761048
v 0.005369999911636114 0.005929000210016966 -0.0047320001758635035
v -0.00240899994969368 0.0073819998651742935 -0.00484800012782216
v -0.0008149999775923789 0.007722000125795603 -0.00484800012782216
v 0.0008149999775923789 0.007722000125795603 -0.00484800012782216
v 0.00240899994969368 0.0073819998651742935 -0.00484800012782216
v 0.003897000104188919 0.0067170001566410065 -0.00484800012782216
v 0.005212999880313873 0.005756000056862831 -0.00484800012782216
v 0.04899999871850014 -0.023499999195337296 -0.0047320001758635035
v 0.049414001405239105 -0.023499999195337296 -0.004414000082761048
v 0.049306999891996384 -0.024265000596642494 -0.004306999966502189
v 0.04973199963569641 -0.023499999195337296 -0.004000000189989804
v 0.04984800145030022 -0.023499999195337296 -0.0037650000303983684
v 0.04970699921250343 -0.024265000596642494 -0.0037070000544190402
v 0.049306999891996384 -0.024914000183343887 -0.003540999954566359
v 0.04870700091123581 -0.025348000228405 -0.0032929999288171525
v 0.04854099825024605 -0.024914000183343887 -0.004306999966502189
v 0.04829299822449684 -0.025348000228405 -0.0037070000544190402
v 0.04899999871850014 -0.024914000183343887 -0.004000000189989804
v 0.04854099825024605 -0.025348000228405 -0.003540999954566359
v 0.04876499995589256 -0.023499999195337296 -0.00484800012782216
v 0.04870700091123581 -0.024265000596642494 -0.004707000218331813
v 0.04973199963569641 -0.011500000022351742 0.0030000000260770317
v 0.049414001405239105 -0.011086000129580498 0.0030000000260770317
v 0.049306999891996384 -0.01119299978017807 0.0037650000303983684
v 0.04899999871850014 -0.010768000036478043 0.0030000000260770317
v 0.04876499995589256 -0.010652000084519386 0.0030000000260770317
v 0.04870700091123581 -0.01079300045967102 0.0037650000303983684
v 0.04854099825024605 -0.01119299978017807 0.004414000082761048
v 0.04829299822449684 -0.011792999692261219 0.00484800012782216
v 0.049306999891996384 -0.011958999559283257 0.004414000082761048
v 0.04870700091123581 -0.012206999585032463 0.00484800012782216
v 0.04899999871850014 -0.011500000022351742 0.004414000082761048
v 0.04854099825024605 -0.011958999559283257 0.00484800012782216
v 0.04984800145030022 -0.011734999716281891 0.0030000000260770317
v 0.04970699921250343 -0.011792999692261219 0.0037650000303983684
v 0.015598000027239323 -0.0036510000936686993 -0.00484800012782216
v 0.015755999833345413 -0.003476999932900071 -0.0047320001758635035
v 0.016033999621868134 -0.003169999923557043 -0.004414000082761048
v 0.01624700054526329 -0.002933999989181757 -0.004000000189989804
v 0.016325000673532486 -0.002848000032827258 -0.0037650000303983684
v 0.04876499995589256 -0.012500000186264515 -0.00484800012782216
v 0.04899999871850014 -0.012500000186264515 -0.0047320001758635035
v 0.049414001405239105 -0.012500000186264515 -0.004414000082761048
v 0.04973199963569641 -0.012500000186264515 -0.004000000189989804
v 0.04984800145030022 -0.012500000186264515 -0.0037650000303983684
v 0.04876499995589256 -0.010652000084519386 -0.0030000000260770317
v 0.04899999871850014 -0.010768000036478043 -0.0030000000260770317
v 0.049414001405239105 -0.011086000129580498 -0.0030000000260770317
v 0.04973199963569641 -0.011500000022351742 -0.0030000000260770317
v 0.04984800145030022 -0.011734999716281891 -0.0030000000260770317
v 0.018588999286293983 -0.006041999906301498 -0.00484800012782216
v 0.03656600043177605 -0.011734999716281891 -0.00484800012782216
v 0.03274499997496605 -0.011500000022351742 -0.00484800012782216
v 0.03287699818611145 -0.010425999760627747 -0.0037650000303983684
v 0.03656600043177605 -0.010768000036478043 -0.004000000189989804
v 0.03282399848103523 -0.010855999775230885 -0.004414000082761048
v 0.03656600043177605 -0.011086000129580498 -0.004414000082761048
v 0.03656600043177605 -0.011500000022351742 -0.0047320001758635035
v 0.02897999994456768 -0.010799000039696693 -0.00484800012782216
v 0.029138000681996346 -0.010169999673962593 -0.004414000082761048
v 0.029242999851703644 -0.009748999960720539 -0.0037650000303983684
v 0.021849000826478004 -0.008050000295042992 -0.00484800012782216
v 0.022154999896883965 -0.00747800013050437 -0.004414000082761048
v 0.01896199956536293 -0.005512000061571598 -0.004414000082761048
v 0.022359000518918037 -0.007094999775290489 -0.0037650000303983684
v 0.01921200007200241 -0.005156999919563532 -0.0037650000303983684
v 0.03656600043177605 -0.010652000084519386 -0.0037650000303983684
v 0.02572000026702881 -0.008634000085294247 -0.0037650000303983684
v 0.025564000010490417 -0.009038000367581844 -0.004414000082761048
v 0.02532999962568283 -0.009643999859690666 -0.00484800012782216
v 0.04800000041723251 -0.011500000022351742 -0.0047320001758635035
v 0.04800000041723251 -0.011086000129580498 -0.004414000082761048
v 0.04876499995589256 -0.01119299978017807 -0.004306999966502189
v 0.04800000041723251 -0.010768000036478043 -0.004000000189989804
v 0.04800000041723251 -0.010652000084519386 -0.0037650000303983684
v 0.04876499995589256 -0.01079300045967102 -0.0037070000544190402
v 0.049414001405239105 -0.01119299978017807 -0.003540999954566359
v 0.04984800145030022 -0.011792999692261219 -0.0032929999288171525
v 0.049414001405239105 -0.011958999559283257 -0.004306999966502189
v 0.04984800145030022 -0.012206999585032463 -0.0037070000544190402
v 0.049414001405239105 -0.011500000022351742 -0.004000000189989804
v 0.04984800145030022 -0.011958999559283257 -0.003540999954566359
v 0.04800000041723251 -0.011734999716281891 -0.00484800012782216
v 0.04876499995589256 -0.011792999692261219 -0.004707000218331813
f 1 2 3
f 3 2 4
f 5 6 7
f 7 6 8
f 9 10 11
f 8 6 12
f 12 6 9
f 12 9 13
f 14 15 9
f 9 15 16
f 9 16 10
f 13 9 17
f 17 9 11
f 17 11 18
f 18 11 19
f 18 19 20
f 19 21 20
f 20 21 22
f 20 22 23
f 24 25 26
f 22 27 23
f 23 27 28
f 23 28 26
f 26 28 29
f 26 29 24
f 24 30 25
f 25 30 31
f 25 31 32
f 32 31 33
f 32 33 34
f 34 33 35
f 34 35 5
f 5 35 36
f 36 37 5
f 5 37 38
f 5 38 6
f 6 38 39
f 6 39 40
f 40 41 6
f 6 41 42
f 6 42 43
f 44 45 46
f 46 45 47
f 48 49 50
f 50 49 51
f 50 51 52
f 53 54 50
f 50 54 55
f 50 55 56
f 57 58 52
f 59 60 61
f 61 60 62
f 61 62 63
f 63 62 64
f 63 64 65
f 65 64 66
f 67 68 69
f 56 70 50
f 50 70 71
f 50 71 48
f 48 71 72
f 59 61 73
f 73 61 74
f 73 74 75
f 67 76 68
f 68 76 77
f 68 77 66
f 66 77 78
f 66 78 65
f 71 79 72
f 72 79 80
f 72 80 81
f 81 80 82
f 81 82 69
f 69 82 83
f 69 83 67
f 51 84 52
f 52 84 73
f 52 73 57
f 57 73 75
f 58 85 52
f 52 85 86
f 52 86 87
f 88 89 90
f 90 89 91
f 92 93 94
f 94 93 95
f 96 97 98
f 98 97 99
f 100 101 102
f 102 101 103
f 101 100 104
f 104 100 105
f 104 105 106
f 106 105 107
f 106 107 108
f 108 107 109
f 108 109 110
f 110 109 111
f 110 111 112
f 112 111 113
f 112 113 114
f 114 113 115
f 114 115 116
f 116 115 117
f 116 117 118
f 118 117 119
f 118 119 120
f 120 119 121
f 120 121 122
f 122 121 123
f 122 123 124
f 124 123 125
f 126 127 125
f 125 127 124
f 64 62 20
f 20 62 60
f 20 60 18
f 18 60 59
f 18 59 17
f 17 59 73
f 17 73 13
f 13 73 84
f 13 84 12
f 12 84 51
f 12 51 8
f 8 51 49
f 8 49 7
f 7 49 48
f 7 48 5
f 5 48 72
f 5 72 34
f 34 72 81
f 34 81 32
f 32 81 69
f 32 69 25
f 25 69 68
f 25 68 26
f 26 68 66
f 26 66 23
f 23 66 64
f 23 64 20
f 102 103 128
f 128 103 129
f 128 129 130
f 130 129 131
f 130 131 132
f 132 131 133
f 132 133 134
f 134 133 135
f 134 135 136
f 136 135 137
f 136 137 138
f 138 137 139
f 138 139 140
f 140 139 141
f 140 141 142
f 142 141 143
f 142 143 144
f 144 143 145
f 144 145 1
f 1 145 2
f 127 126 146
f 146 126 147
f 146 147 148
f 148 147 149
f 148 149 150
f 150 149 151
f 150 151 152
f 152 151 153
f 152 153 154
f 154 153 155
f 154 155 156
f 156 155 157
f 156 157 158
f 158 157 159
f 158 159 160
f 160 159 161
f 160 161 162
f 162 161 163
f 162 163 47
f 47 163 46
f 43 42 164
f 164 42 165
f 164 165 166
f 166 165 167
f 166 167 168
f 168 167 169
f 168 169 170
f 170 169 171
f 170 171 172
f 172 171 173
f 172 173 45
f 45 173 47
f 174 175 176
f 177 178 179
f 180 170 181
f 181 170 172
f 181 172 45
f 182 183 184
f 184 183 185
f 184 185 45
f 179 166 180
f 180 166 168
f 180 168 170
f 178 43 179
f 179 43 164
f 179 164 166
f 175 177 176
f 176 177 179
f 176 179 186
f 186 179 180
f 186 180 187
f 187 180 181
f 187 181 45
f 188 174 189
f 189 174 176
f 189 176 183
f 183 176 186
f 183 186 185
f 185 186 187
f 185 187 45
f 182 190 183
f 183 190 191
f 183 191 189
f 189 191 192
f 189 192 188
f 188 192 93
f 193 37 36
f 42 41 165
f 165 41 194
f 195 171 196
f 196 171 169
f 196 169 194
f 194 169 167
f 194 167 165
f 41 40 194
f 194 40 197
f 194 197 196
f 196 197 198
f 196 198 195
f 195 198 199
f 38 37 200
f 200 37 193
f 200 193 201
f 201 193 202
f 201 202 203
f 203 202 204
f 36 205 193
f 193 205 206
f 193 206 202
f 202 206 207
f 202 207 204
f 204 207 208
f 204 208 209
f 162 47 195
f 195 47 173
f 195 173 171
f 152 154 210
f 210 154 199
f 210 199 211
f 211 199 198
f 211 198 212
f 212 198 197
f 212 197 39
f 39 197 40
f 154 156 199
f 199 156 158
f 199 158 195
f 195 158 160
f 195 160 162
f 150 152 203
f 203 152 210
f 203 210 201
f 201 210 211
f 201 211 200
f 200 211 212
f 200 212 38
f 38 212 39
f 150 203 148
f 148 203 204
f 148 204 146
f 146 204 209
f 146 209 127
f 45 44 184
f 184 44 213
f 184 213 182
f 182 213 214
f 182 214 190
f 190 214 215
f 190 215 191
f 191 215 216
f 191 216 192
f 192 216 217
f 192 217 93
f 93 217 95
f 6 43 218
f 218 43 178
f 218 178 219
f 219 178 177
f 219 177 220
f 220 177 175
f 220 175 221
f 221 175 174
f 221 174 222
f 222 174 188
f 222 188 92
f 92 188 93
f 36 35 205
f 205 35 223
f 205 223 206
f 206 223 224
f 206 224 207
f 207 224 225
f 207 225 208
f 208 225 226
f 208 226 209
f 209 226 227
f 209 227 127
f 127 227 124
f 228 229 230
f 231 232 233
f 234 214 235
f 235 214 213
f 235 213 44
f 236 237 238
f 238 237 239
f 238 239 44
f 233 216 234
f 234 216 215
f 234 215 214
f 232 95 233
f 233 95 217
f 233 217 216
f 229 231 230
f 230 231 233
f 230 233 240
f 240 233 234
f 240 234 241
f 241 234 235
f 241 235 44
f 242 228 243
f 243 228 230
f 243 230 237
f 237 230 240
f 237 240 239
f 239 240 241
f 239 241 44
f 236 244 237
f 237 244 245
f 237 245 243
f 243 245 246
f 243 246 242
f 242 246 53
f 247 248 249
f 250 251 252
f 253 221 254
f 254 221 222
f 254 222 92
f 255 256 257
f 257 256 258
f 257 258 92
f 252 219 253
f 253 219 220
f 253 220 221
f 251 6 252
f 252 6 218
f 252 218 219
f 248 250 249
f 249 250 252
f 249 252 259
f 259 252 253
f 259 253 260
f 260 253 254
f 260 254 92
f 261 247 262
f 262 247 249
f 262 249 256
f 256 249 259
f 256 259 258
f 258 259 260
f 258 260 92
f 255 263 256
f 256 263 264
f 256 264 262
f 262 264 265
f 262 265 261
f 261 265 91
f 266 267 268
f 269 122 124
f 267 101 104
f 267 104 268
f 268 104 106
f 268 106 270
f 106 108 270
f 270 108 110
f 270 110 271
f 110 112 271
f 271 112 114
f 271 114 272
f 272 114 116
f 272 116 273
f 273 116 118
f 273 118 269
f 269 118 120
f 269 120 122
f 274 275 276
f 276 275 266
f 266 268 276
f 276 268 270
f 276 270 277
f 277 270 271
f 277 271 278
f 278 271 272
f 278 272 279
f 279 272 273
f 279 273 280
f 280 273 269
f 280 269 281
f 27 282 283
f 283 282 274
f 124 227 269
f 269 227 226
f 269 226 281
f 281 226 225
f 281 225 224
f 274 276 283
f 283 276 277
f 283 277 284
f 284 277 278
f 284 278 285
f 285 278 279
f 285 279 286
f 286 279 280
f 286 280 287
f 287 280 281
f 287 281 288
f 288 281 224
f 288 224 223
f 27 283 28
f 28 283 284
f 28 284 29
f 29 284 285
f 29 285 24
f 24 285 286
f 24 286 30
f 30 286 287
f 30 287 31
f 31 287 288
f 31 288 33
f 33 288 223
f 33 223 35
f 54 53 289
f 289 53 246
f 289 246 290
f 290 246 245
f 290 245 291
f 291 245 244
f 291 244 292
f 292 244 236
f 292 236 293
f 293 236 238
f 293 238 46
f 46 238 44
f 53 50 242
f 242 50 294
f 242 294 228
f 228 294 295
f 228 295 229
f 229 295 296
f 229 296 231
f 231 296 297
f 231 297 232
f 232 297 298
f 232 298 95
f 95 298 94
f 90 91 299
f 299 91 265
f 299 265 300
f 300 265 264
f 300 264 301
f 301 264 263
f 301 263 302
f 302 263 255
f 302 255 303
f 303 255 257
f 303 257 94
f 94 257 92
f 91 89 261
f 261 89 304
f 261 304 247
f 247 304 305
f 247 305 248
f 248 305 306
f 248 306 250
f 250 306 307
f 250 307 251
f 251 307 308
f 251 308 6
f 6 308 9
f 27 22 282
f 282 22 309
f 282 309 274
f 274 309 310
f 274 310 275
f 275 310 311
f 275 311 266
f 266 311 312
f 266 312 267
f 267 312 313
f 267 313 101
f 101 313 103
f 314 55 54
f 80 79 315
f 315 79 316
f 317 318 319
f 319 318 320
f 319 320 316
f 316 320 321
f 316 321 315
f 79 71 316
f 316 71 322
f 316 322 319
f 319 322 323
f 319 323 317
f 317 323 324
f 56 55 325
f 325 55 314
f 325 314 326
f 326 314 327
f 326 327 328
f 328 327 329
f 54 289 314
f 314 289 290
f 314 290 327
f 327 290 291
f 327 291 329
f 329 291 292
f 329 292 293
f 147 126 317
f 317 126 330
f 317 330 318
f 157 155 331
f 331 155 324
f 331 324 332
f 332 324 323
f 332 323 333
f 333 323 322
f 333 322 70
f 70 322 71
f 155 153 324
f 324 153 151
f 324 151 317
f 317 151 149
f 317 149 147
f 159 157 328
f 328 157 331
f 328 331 326
f 326 331 332
f 326 332 325
f 325 332 333
f 325 333 56
f 56 333 70
f 159 328 161
f 161 328 329
f 161 329 163
f 163 329 293
f 163 293 46
f 334 335 336
f 337 338 339
f 340 302 341
f 341 302 303
f 341 303 94
f 297 342 298
f 298 342 343
f 298 343 94
f 339 300 340
f 340 300 301
f 340 301 302
f 338 90 339
f 339 90 299
f 339 299 300
f 335 337 336
f 336 337 339
f 336 339 344
f 344 339 340
f 344 340 345
f 345 340 341
f 345 341 94
f 346 334 347
f 347 334 336
f 347 336 342
f 342 336 344
f 342 344 343
f 343 344 345
f 343 345 94
f 297 296 342
f 342 296 295
f 342 295 347
f 347 295 294
f 347 294 346
f 346 294 50
f 348 349 350
f 351 352 353
f 354 305 355
f 355 305 304
f 355 304 89
f 356 357 358
f 358 357 359
f 358 359 89
f 353 307 354
f 354 307 306
f 354 306 305
f 352 9 353
f 353 9 308
f 353 308 307
f 349 351 350
f 350 351 353
f 350 353 360
f 360 353 354
f 360 354 361
f 361 354 355
f 361 355 89
f 362 348 363
f 363 348 350
f 363 350 357
f 357 350 360
f 357 360 359
f 359 360 361
f 359 361 89
f 356 364 357
f 357 364 365
f 357 365 363
f 363 365 366
f 363 366 362
f 362 366 98
f 367 16 15
f 22 21 309
f 309 21 368
f 369 312 370
f 370 312 311
f 370 311 368
f 368 311 310
f 368 310 309
f 21 19 368
f 368 19 371
f 368 371 370
f 370 371 372
f 370 372 369
f 369 372 373
f 10 16 374
f 374 16 367
f 374 367 375
f 375 367 376
f 375 376 377
f 377 376 378
f 15 379 367
f 367 379 380
f 367 380 376
f 376 380 381
f 376 381 378
f 378 381 382
f 378 382 383
f 129 103 369
f 369 103 313
f 369 313 312
f 139 137 384
f 384 137 373
f 384 373 385
f 385 373 372
f 385 372 386
f 386 372 371
f 386 371 11
f 11 371 19
f 137 135 373
f 373 135 133
f 373 133 369
f 369 133 131
f 369 131 129
f 141 139 377
f 377 139 384
f 377 384 375
f 375 384 385
f 375 385 374
f 374 385 386
f 374 386 10
f 10 386 11
f 141 377 143
f 143 377 378
f 143 378 145
f 145 378 383
f 145 383 2
f 126 125 330
f 330 125 387
f 330 387 318
f 318 387 388
f 318 388 320
f 320 388 389
f 320 389 321
f 321 389 390
f 321 390 315
f 315 390 391
f 315 391 80
f 80 391 82
f 50 52 346
f 346 52 392
f 346 392 334
f 334 392 393
f 334 393 335
f 335 393 394
f 335 394 337
f 337 394 395
f 337 395 338
f 338 395 396
f 338 396 90
f 90 396 88
f 89 88 358
f 358 88 397
f 358 397 356
f 356 397 398
f 356 398 364
f 364 398 399
f 364 399 365
f 365 399 400
f 365 400 366
f 366 400 401
f 366 401 98
f 98 401 96
f 14 9 402
f 402 9 352
f 402 352 403
f 403 352 351
f 403 351 404
f 404 351 349
f 404 349 405
f 405 349 348
f 405 348 406
f 406 348 362
f 406 362 99
f 99 362 98
f 15 14 379
f 379 14 407
f 379 407 380
f 380 407 408
f 380 408 381
f 381 408 409
f 381 409 382
f 382 409 410
f 382 410 383
f 383 410 411
f 383 411 2
f 2 411 4
f 388 387 412
f 413 105 100
f 387 125 123
f 387 123 412
f 412 123 121
f 412 121 414
f 121 119 414
f 414 119 117
f 414 117 415
f 117 115 415
f 415 115 113
f 415 113 416
f 416 113 111
f 416 111 417
f 417 111 109
f 417 109 413
f 413 109 107
f 413 107 105
f 390 389 418
f 418 389 388
f 388 412 418
f 418 412 414
f 418 414 419
f 419 414 415
f 419 415 420
f 420 415 416
f 420 416 421
f 421 416 417
f 421 417 422
f 422 417 413
f 422 413 423
f 82 391 424
f 424 391 390
f 100 425 413
f 413 425 426
f 413 426 423
f 423 426 427
f 423 427 428
f 390 418 424
f 424 418 419
f 424 419 429
f 429 419 420
f 429 420 430
f 430 420 421
f 430 421 431
f 431 421 422
f 431 422 432
f 432 422 423
f 432 423 433
f 433 423 428
f 433 428 434
f 82 424 83
f 83 424 429
f 83 429 67
f 67 429 430
f 67 430 76
f 76 430 431
f 76 431 77
f 77 431 432
f 77 432 78
f 78 432 433
f 78 433 65
f 65 433 434
f 65 434 63
f 435 436 437
f 438 439 440
f 441 398 442
f 442 398 397
f 442 397 88
f 395 443 396
f 396 443 444
f 396 444 88
f 440 400 441
f 441 400 399
f 441 399 398
f 439 96 440
f 440 96 401
f 440 401 400
f 436 438 437
f 437 438 440
f 437 440 445
f 445 440 441
f 445 441 446
f 446 441 442
f 446 442 88
f 447 435 448
f 448 435 437
f 448 437 443
f 443 437 445
f 443 445 444
f 444 445 446
f 444 446 88
f 395 394 443
f 443 394 393
f 443 393 448
f 448 393 392
f 448 392 447
f 447 392 52
f 449 450 451
f 452 453 454
f 455 408 456
f 456 408 407
f 456 407 14
f 403 457 402
f 402 457 458
f 402 458 14
f 454 410 455
f 455 410 409
f 455 409 408
f 453 4 454
f 454 4 411
f 454 411 410
f 450 452 451
f 451 452 454
f 451 454 459
f 459 454 455
f 459 455 460
f 460 455 456
f 460 456 14
f 461 449 462
f 462 449 451
f 462 451 457
f 457 451 459
f 457 459 458
f 458 459 460
f 458 460 14
f 403 404 457
f 457 404 405
f 457 405 462
f 462 405 406
f 462 406 461
f 461 406 99
f 61 63 463
f 463 63 434
f 463 434 464
f 464 434 428
f 464 428 465
f 465 428 427
f 465 427 466
f 466 427 426
f 466 426 467
f 467 426 425
f 467 425 102
f 102 425 100
f 52 87 447
f 447 87 468
f 447 468 435
f 435 468 469
f 435 469 436
f 436 469 470
f 436 470 438
f 438 470 471
f 438 471 439
f 439 471 472
f 439 472 96
f 96 472 97
f 3 4 473
f 473 4 453
f 473 453 474
f 474 453 452
f 474 452 475
f 475 452 450
f 475 450 476
f 476 450 449
f 476 449 477
f 477 449 461
f 477 461 97
f 97 461 99
f 478 74 61
f 86 85 479
f 479 85 480
f 481 482 483
f 483 482 484
f 483 484 480
f 480 484 485
f 480 485 479
f 85 58 480
f 480 58 486
f 480 486 483
f 483 486 487
f 483 487 481
f 481 487 488
f 75 74 489
f 489 74 478
f 489 478 490
f 490 478 491
f 490 491 492
f 492 491 493
f 61 463 478
f 478 463 464
f 478 464 491
f 491 464 465
f 491 465 493
f 493 465 466
f 493 466 467
f 144 1 481
f 481 1 494
f 481 494 482
f 134 136 495
f 495 136 488
f 495 488 496
f 496 488 487
f 496 487 497
f 497 487 486
f 497 486 57
f 57 486 58
f 136 138 488
f 488 138 140
f 488 140 481
f 481 140 142
f 481 142 144
f 132 134 492
f 492 134 495
f 492 495 490
f 490 495 496
f 490 496 489
f 489 496 497
f 489 497 75
f 75 497 57
f 132 492 130
f 130 492 493
f 130 493 128
f 128 493 467
f 128 467 102
f 498 499 500
f 501 502 503
f 504 476 505
f 505 476 477
f 505 477 97
f 471 506 472
f 472 506 507
f 472 507 97
f 503 474 504
f 504 474 475
f 504 475 476
f 502 3 503
f 503 3 473
f 503 473 474
f 499 501 500
f 500 501 503
f 500 503 508
f 508 503 504
f 508 504 509
f 509 504 505
f 509 505 97
f 510 498 511
f 511 498 500
f 511 500 506
f 506 500 508
f 506 508 507
f 507 508 509
f 507 509 97
f 471 470 506
f 506 470 469
f 506 469 511
f 511 469 468
f 511 468 510
f 510 468 87
f 87 86 510
f 510 86 479
f 510 479 498
f 498 479 485
f 498 485 499
f 499 485 484
f 499 484 501
f 501 484 482
f 501 482 502
f 502 482 494
f 502 494 3
f 3 494 1
